<svg width="30" height="30" viewBox="0 0 30 30" fill="none" xmlns="http://www.w3.org/2000/svg">
<path d="M20.2375 2.5H9.7625C5.2125 2.5 2.5 5.2125 2.5 9.7625V20.225C2.5 24.7875 5.2125 27.5 9.7625 27.5H20.225C24.775 27.5 27.4875 24.7875 27.4875 20.2375V9.7625C27.5 5.2125 24.7875 2.5 20.2375 2.5ZM23.1625 15.6625L17.8 21.025C17.6125 21.2125 17.375 21.3 17.1375 21.3C16.9 21.3 16.6625 21.2125 16.475 21.025C16.1125 20.6625 16.1125 20.0625 16.475 19.7L20.2375 15.9375H7.5C6.9875 15.9375 6.5625 15.5125 6.5625 15C6.5625 14.4875 6.9875 14.0625 7.5 14.0625H20.2375L16.475 10.3C16.1125 9.9375 16.1125 9.3375 16.475 8.975C16.8375 8.6125 17.4375 8.6125 17.8 8.975L23.1625 14.3375C23.3375 14.5125 23.4375 14.75 23.4375 15C23.4375 15.25 23.3375 15.4875 23.1625 15.6625Z" fill="#0155B6"/>
</svg>
