<svg width="30" height="30" viewBox="0 0 30 30" fill="none" xmlns="http://www.w3.org/2000/svg">
<path d="M24.7375 5.27502C21.0375 1.58752 15.0375 1.58752 11.3625 5.27502C8.775 7.83752 8 11.525 9 14.775L3.125 20.65C2.7125 21.075 2.425 21.9125 2.5125 22.5125L2.8875 25.2375C3.025 26.1375 3.8625 26.9875 4.7625 27.1125L7.4875 27.4875C8.0875 27.575 8.925 27.3 9.35 26.8625L10.375 25.8375C10.625 25.6 10.625 25.2 10.375 24.95L7.95 22.525C7.5875 22.1625 7.5875 21.5625 7.95 21.2C8.3125 20.8375 8.9125 20.8375 9.275 21.2L11.7125 23.6375C11.95 23.875 12.35 23.875 12.5875 23.6375L15.2375 21C18.475 22.0125 22.1625 21.225 24.7375 18.6625C28.425 14.975 28.425 8.96252 24.7375 5.27502ZM18.125 15C16.4 15 15 13.6 15 11.875C15 10.15 16.4 8.75002 18.125 8.75002C19.85 8.75002 21.25 10.15 21.25 11.875C21.25 13.6 19.85 15 18.125 15Z" fill="#0155B6"/>
</svg>
