<svg width="518" height="510" viewBox="0 0 518 510" fill="none" xmlns="http://www.w3.org/2000/svg">
<g clip-path="url(#clip0_327_2324)">
<path d="M435.401 400.059C434.523 399.873 433.609 399.952 432.776 400.286C431.942 400.62 431.227 401.195 430.721 401.937C425.302 409.634 419.421 416.996 413.111 423.981C410.812 426.608 408.411 429.164 405.906 431.647C381.594 456.336 352.066 475.271 319.485 487.065C316.406 488.143 313.574 489.128 310.587 490.144C291.864 496.042 272.465 499.529 252.86 500.52C249.782 500.52 246.703 500.766 243.624 500.797H241.007C209.289 500.822 177.906 494.312 148.815 481.673C119.723 469.035 93.5479 450.538 71.9204 427.337C69.796 425.09 67.7332 422.811 65.7628 420.471C54.2656 407.195 44.3186 392.651 36.1142 377.122C34.6363 374.351 33.2201 371.55 31.8654 368.717C26.7631 358.135 22.4912 347.172 19.0885 335.928C18.0417 332.511 17.0873 329.032 16.2252 325.553C11.5759 307.07 9.22845 288.084 9.23641 269.026C9.23641 266.348 9.23641 263.669 9.23641 261.021C9.23641 257.604 9.5135 254.186 9.79059 250.83C12.7372 213.971 24.4545 178.35 43.9652 146.939C63.4759 115.528 90.2144 89.2373 121.951 70.26C124.845 68.5051 127.8 66.8118 130.787 65.2108C149.299 55.1709 169.108 47.7322 189.653 43.1051C193.163 42.3047 196.673 41.5965 200.213 40.9808C244.541 33.0716 290.214 38.2497 331.646 55.8821C332.499 56.2496 333.443 56.348 334.353 56.1642C335.263 55.9804 336.095 55.5231 336.737 54.8535C337.38 54.1838 337.803 53.3339 337.95 52.4173C338.096 51.5007 337.96 50.5612 337.558 49.7245C337.093 48.7221 336.269 47.9308 335.248 47.5078C305.476 34.7685 273.422 28.2216 241.038 28.2654C224.825 28.2569 208.652 29.8762 192.763 33.0991C189.16 33.8688 185.589 34.6693 182.048 35.5929C161.136 40.8632 141.033 48.9414 122.289 59.6074C119.21 61.3623 116.132 63.148 113.238 65.0568C82.0405 84.5597 55.7214 110.945 36.2963 142.19C16.8712 173.436 4.85563 208.713 1.17001 245.319C0.800554 248.799 0.554252 252.462 0.369525 255.88C7.12476e-05 260.221 7.12478e-05 264.777 7.12478e-05 269.026C-0.0137003 286.904 1.969 304.728 5.91133 322.166C6.71181 325.768 7.60466 329.339 8.58987 332.849C12.5349 347.229 17.8229 361.207 24.384 374.597C25.7695 377.43 27.2165 380.262 28.7251 383.033C37.1154 398.578 47.1702 413.165 58.7124 426.537C60.7649 428.856 62.8175 431.134 64.87 433.371C87.3681 457.571 114.618 476.867 144.915 490.052C175.212 503.238 207.904 510.03 240.945 510.002H244.024C247.144 510.002 250.223 509.91 253.261 509.725C273.039 508.732 292.617 505.278 311.542 499.442C314.621 498.549 317.699 497.564 320.563 496.363C368.124 479.591 409.254 448.374 438.203 407.079C438.642 406.459 438.922 405.741 439.017 404.988C439.113 404.234 439.021 403.469 438.75 402.76C438.479 402.05 438.037 401.419 437.464 400.921C436.89 400.423 436.203 400.074 435.463 399.905L435.401 400.059Z" fill="#0155B6"/>
<path d="M128.756 320.009L124.785 321.579C89.9785 334.599 51.8912 335.993 16.2268 325.551C12.7477 324.535 9.2995 323.396 5.91284 322.164C6.71332 325.767 7.60617 329.338 8.59138 332.848C12.0396 333.987 15.5494 335.003 19.09 335.927C33.9681 339.803 49.2812 341.759 64.656 341.745C72.5104 341.742 80.3567 341.238 88.1471 340.237C97.9058 338.98 107.544 336.921 116.964 334.079L118.719 333.525C119.971 333.156 121.234 332.755 122.506 332.324C125.585 331.308 128.664 330.2 131.466 329.03L138.116 316.222V316.007C135.068 317.392 131.927 318.747 128.756 320.009ZM244.18 137.869C244.18 137.499 244.18 137.16 244.18 136.791C244.18 136.422 244.18 136.021 244.026 135.652C243.872 135.282 243.841 134.236 243.718 133.528C243.41 131.496 243.071 129.494 242.702 127.37C242.702 126.508 242.363 125.615 242.179 124.753C235.815 93.5732 221.304 64.6361 200.122 40.887C197.69 38.1469 195.196 35.4684 192.61 32.8822C189.008 33.6519 185.437 34.4524 181.896 35.376C184.544 37.839 187.099 40.3636 189.562 43.0114C210.309 64.9572 224.882 92.0004 231.803 121.397C232.019 122.228 232.203 123.06 232.388 123.891C232.573 124.722 232.696 125.184 232.788 125.861C232.803 125.953 232.803 126.047 232.788 126.138C233.158 127.893 233.496 129.71 233.804 131.496C233.989 132.45 234.143 133.435 234.297 134.39C234.451 135.344 234.574 136.268 234.697 137.222C236.298 139.377 238.115 141.625 240.177 143.965C241.686 145.689 243.256 147.413 245.134 149.168C244.98 145.381 244.642 141.625 244.18 137.869Z" fill="#0155B6"/>
<path d="M176.166 140.546C175.828 137.991 175.335 135.466 174.781 132.973C168.718 105.847 153.102 81.8069 130.785 65.2395C128.014 63.1767 125.182 61.2371 122.226 59.4206C119.147 61.1755 116.069 62.9612 113.174 64.87C116.192 66.5223 119.12 68.331 121.949 70.2887C144.206 85.5155 159.854 108.623 165.729 134.943C166.376 137.806 166.899 140.762 167.299 143.718C167.299 143.718 167.299 143.902 167.299 143.995L176.382 142.178C176.345 141.63 176.273 141.085 176.166 140.546ZM146.856 233.68L139.991 233.987L139.529 230.662C138.174 232.109 136.789 233.526 135.372 234.88C133.956 236.235 132.694 237.374 131.308 238.575C114.793 252.845 94.284 261.682 72.5692 263.886C50.8545 266.089 28.988 261.552 9.94293 250.89C6.92323 249.186 3.99441 247.326 1.1684 245.317C0.798949 248.796 0.552647 252.46 0.36792 255.878C3.4467 257.725 6.30997 259.449 9.38875 261.019C30.3565 271.715 54.0936 275.742 77.4158 272.561C100.738 269.381 122.53 259.144 139.867 243.224C140.668 242.526 141.468 241.787 142.269 241.007C144.732 238.606 147.103 236.112 149.381 233.495L146.856 233.68Z" fill="#0155B6"/>
<path d="M319.487 487.065C318.687 481.646 317.671 476.32 316.409 471.086C315.762 468.284 314.992 465.482 314.192 462.742C308.776 444.381 300.461 427.003 289.562 411.265C289.1 410.557 288.638 409.88 288.145 409.202L285.652 405.754L284.051 403.66C283.312 402.675 282.573 401.721 281.803 400.766C281.033 399.812 279.894 398.396 278.909 397.257C261.947 377.006 240.75 360.722 216.813 349.551C192.875 338.381 166.78 332.595 140.364 332.602C137.747 332.602 135.161 332.602 132.575 332.787H129.342C126.786 332.941 124.293 333.126 121.799 333.372L118.443 333.772L116.873 333.957C107.114 335.21 97.4748 337.27 88.0554 340.114C67.7761 346.239 48.735 355.889 31.8061 368.624C29.2815 370.502 26.7877 372.472 24.3862 374.504C25.7717 377.337 27.2187 380.169 28.7273 382.94C31.098 380.877 33.561 378.907 36.0548 377.029C59.5669 358.903 87.4034 347.23 116.811 343.162C119.059 342.855 121.306 342.577 123.585 342.362C126.417 342.085 129.249 341.869 132.113 341.746C134.976 341.623 137.347 341.531 139.964 341.531H140.364C164.906 341.52 189.164 346.778 211.498 356.95C233.833 367.121 253.724 381.969 269.827 400.489C271.263 402.152 272.68 403.845 274.075 405.569C276.128 408.135 278.18 410.752 280.233 413.42L282.111 416.099C297.31 438.147 307.118 463.457 310.744 489.989C311.175 493.068 311.513 496.147 311.76 499.226C314.838 498.333 317.917 497.348 320.78 496.147C320.195 493.284 319.949 490.174 319.487 487.065Z" fill="#0155B6"/>
<path d="M252.86 500.456C250.995 479.664 243.533 459.765 231.267 442.873C219.001 425.981 202.389 412.727 183.195 404.518C164.001 396.308 142.943 393.451 122.255 396.249C101.568 399.046 82.0247 407.395 65.701 420.407C63.2995 422.316 60.9597 424.348 58.7122 426.565C60.7647 428.884 62.8172 431.163 64.8697 433.4C67.1172 431.276 69.4571 429.274 71.8893 427.242C86.8909 415.409 104.804 407.837 123.745 405.324C142.686 402.81 161.954 405.448 179.523 412.96C197.091 420.471 212.311 432.578 223.58 448.008C234.85 463.438 241.752 481.619 243.562 500.64C243.87 503.719 244.024 506.798 244.055 509.877C247.175 509.877 250.253 509.784 253.291 509.6C253.271 506.48 253.127 503.432 252.86 500.456Z" fill="#0155B6"/>
<path d="M401.105 317.116L399.473 311.297L394.27 314.376C384.834 320.016 377.322 328.376 372.718 338.36C368.541 347.537 367.026 357.704 368.347 367.7C368.347 367.7 368.347 367.885 368.347 367.977L369.147 373.889L374.658 371.641C375.643 371.241 376.813 370.718 378.106 370.102C385.408 366.395 391.576 360.79 395.963 353.877C399.269 348.418 401.429 342.345 402.313 336.025C403.197 329.705 402.786 323.272 401.105 317.116ZM388.297 349.012C385.489 353.479 381.711 357.257 377.244 360.065C377.317 353.585 378.801 347.198 381.592 341.35C384.383 335.501 388.415 330.331 393.408 326.198C394.29 334.179 392.492 342.227 388.297 349.074V349.012Z" fill="#0155B6"/>
<path d="M413.295 424.32L413.11 423.981C409.073 416.446 403.326 409.961 396.331 405.047C394.509 403.732 392.595 402.549 390.605 401.506C389.773 401.075 388.911 400.644 388.08 400.275C379.715 396.387 370.492 394.712 361.295 395.41L355.353 395.872L357.261 401.506C359.865 409.109 364.407 415.901 370.439 421.21C371.483 422.148 372.583 423.022 373.733 423.827C375.216 424.87 376.758 425.826 378.351 426.691C385.071 430.22 392.558 432.039 400.149 431.986C402.073 431.997 403.996 431.883 405.906 431.647C407.345 431.508 408.774 431.282 410.186 430.97L416.097 429.677L413.295 424.32ZM384.847 419.579C382.849 418.674 380.942 417.581 379.152 416.315C378.308 415.71 377.497 415.063 376.719 414.375C373.517 411.616 370.828 408.312 368.776 404.616C373.413 404.938 377.972 405.977 382.292 407.695C383.678 408.25 385.035 408.877 386.356 409.573C387.895 410.371 389.377 411.276 390.789 412.282C394.914 415.119 398.535 418.626 401.503 422.657C395.789 422.921 390.09 421.868 384.847 419.579Z" fill="#0155B6"/>
<path d="M378.412 370.316C376.297 372.954 374.036 375.473 371.639 377.859C366.59 382.939 361.418 387.095 359.324 388.942L357.939 389.158L352.643 382.477L355.722 379.891C360.187 376.125 364.413 372.083 368.376 367.791C369.33 366.744 370.223 365.667 371.054 364.712L378.166 370.285L378.412 370.316Z" fill="#0155B6"/>
<path d="M379.091 416.313C380.881 417.579 382.789 418.672 384.786 419.577C382.631 422.071 380.476 424.441 378.352 426.689C348.426 458.647 320.44 470.038 318.469 470.808C317.94 471.014 317.375 471.118 316.807 471.116H316.376C315.435 471.035 314.542 470.666 313.819 470.058C313.096 469.451 312.577 468.636 312.335 467.723C312.092 466.81 312.138 465.845 312.464 464.959C312.791 464.073 313.382 463.309 314.159 462.772C314.438 462.551 314.749 462.374 315.083 462.249C315.545 462.064 341.807 451.288 370.501 421.239C372.564 419.054 374.657 416.775 376.658 414.405C377.436 415.081 378.248 415.719 379.091 416.313Z" fill="#0155B6"/>
<path d="M396.916 391.837C397.747 391.895 398.547 392.172 399.236 392.64C399.925 393.107 400.478 393.75 400.838 394.501C401.197 395.252 401.352 396.085 401.285 396.915C401.218 397.745 400.932 398.542 400.457 399.226C399.102 401.227 397.716 403.167 396.331 405.045C394.484 407.57 392.606 410.033 390.728 412.372C389.315 411.366 387.834 410.461 386.294 409.663C384.973 408.967 383.617 408.34 382.23 407.785C384.201 405.384 386.14 402.859 388.08 400.273C389.619 398.21 391.159 396.055 392.698 393.869C393.163 393.192 393.797 392.648 394.537 392.292C395.277 391.935 396.097 391.779 396.916 391.837Z" fill="#0155B6"/>
<path d="M412.556 377.798H413.634C413.644 377.87 413.644 377.942 413.634 378.014L413.265 378.691C411.756 381.37 410.186 383.925 408.708 386.45L408.554 386.696C404.921 386.419 401.35 386.265 397.809 386.204L398.179 385.619C399.933 382.848 401.688 379.954 403.412 376.998H404.274C407.015 377.306 409.816 377.521 412.556 377.798Z" fill="#0155B6"/>
<path d="M503.719 257.973C496.124 260.553 488.827 263.939 481.952 268.071C478.754 269.995 475.67 272.102 472.715 274.383C470.278 276.19 467.935 278.122 465.696 280.171C462.244 283.308 459.004 286.671 455.998 290.238C452.485 294.431 449.284 298.877 446.423 303.539C442.364 310.015 439.088 316.949 436.663 324.197C436.109 325.921 435.585 327.615 435 329.308C435 329.524 435 329.739 434.785 329.955C432.907 335.589 430.905 340.977 428.812 346.18C428.566 346.795 428.319 347.411 428.042 348.027C424.656 356.401 421.023 364.221 417.205 371.549C413.849 371.364 410.308 371.272 406.737 371.303C415.402 355.413 422.477 338.707 427.857 321.426C430.294 314.111 433.536 307.089 437.525 300.491C438.233 299.29 439.003 298.089 439.772 296.858C442.198 293.056 444.84 289.397 447.685 285.897C451.302 281.445 455.243 277.267 459.477 273.397C463.601 269.649 468.007 266.222 472.654 263.145C475.548 261.205 478.565 259.389 481.675 257.696C487.782 254.394 494.157 251.613 500.732 249.383C501.306 249.181 501.915 249.094 502.522 249.127C503.13 249.159 503.726 249.312 504.274 249.575C504.823 249.838 505.315 250.206 505.722 250.659C506.128 251.113 506.441 251.641 506.643 252.215C506.846 252.789 506.933 253.398 506.9 254.006C506.867 254.613 506.715 255.209 506.452 255.758C506.189 256.307 505.82 256.798 505.367 257.205C504.914 257.611 504.385 257.924 503.811 258.127L503.719 257.973Z" fill="#0155B6"/>
<path d="M487.31 183.311L485.278 177.616L480.291 181.064C473.154 186.096 466.963 192.349 462.003 199.536C458.671 204.314 455.941 209.484 453.875 214.93C449.309 227.103 448.118 240.283 450.427 253.076C450.427 253.723 450.673 254.308 450.796 254.893L451.997 260.743L457.354 258.126L458.524 257.541C463.321 255.037 467.78 251.933 471.793 248.304C474.886 245.54 477.663 242.442 480.075 239.068C481.54 237.056 482.867 234.948 484.047 232.756C487.928 225.171 490.219 216.873 490.78 208.371C491.341 199.868 490.161 191.341 487.31 183.311ZM477.797 224.321C477.243 225.644 476.596 226.968 475.888 228.292C474.358 231.181 472.521 233.895 470.408 236.389C467.064 240.39 463.129 243.858 458.739 246.673C457.751 237.042 459.016 227.313 462.434 218.255C463.33 215.971 464.358 213.74 465.513 211.574C467.4 207.911 469.648 204.446 472.224 201.23C474.632 198.143 477.333 195.297 480.291 192.732C482.727 203.268 481.856 214.298 477.797 224.321Z" fill="#0155B6"/>
<path d="M512.371 393.438C503.794 386.632 493.366 382.566 482.445 381.77C473.024 381.077 463.585 382.871 455.075 386.973L453.135 387.958L449.441 389.928L447.871 390.76L448.517 391.468L451.596 394.824L451.873 395.131C458.26 402.128 466.662 406.969 475.918 408.986C478.816 409.576 481.766 409.875 484.724 409.879C494.569 409.739 504.137 406.603 512.156 400.889L517.236 397.163L512.371 393.438ZM477.827 399.811C472.675 398.712 467.836 396.471 463.665 393.253C469.751 391.094 476.235 390.29 482.664 390.896C489.093 391.502 495.312 393.504 500.887 396.763C493.745 400.288 485.64 401.359 477.827 399.811Z" fill="#0155B6"/>
<path d="M437.431 300.923C436.87 283.375 441.776 266.085 451.47 251.447L459.167 256.558C450.512 269.594 446.143 285.007 446.667 300.646L437.431 300.923Z" fill="#0155B6"/>
<path d="M442.052 305.416C441.291 305.411 440.543 305.221 439.873 304.861C439.202 304.502 438.629 303.984 438.204 303.354C437.868 302.848 437.635 302.282 437.518 301.686C437.402 301.091 437.403 300.478 437.523 299.884C437.644 299.289 437.88 298.724 438.218 298.22C438.557 297.717 438.991 297.285 439.497 296.95C457.97 284.635 484.232 289.684 485.34 289.93C485.933 290.048 486.497 290.281 487 290.618C487.502 290.954 487.933 291.387 488.268 291.89C488.603 292.394 488.835 292.959 488.95 293.552C489.066 294.146 489.063 294.756 488.942 295.349C488.822 295.957 488.581 296.534 488.234 297.048C487.886 297.561 487.44 298 486.921 298.339C486.402 298.677 485.82 298.909 485.21 299.019C484.6 299.129 483.974 299.117 483.37 298.982C483.154 298.982 459.878 294.394 444.485 304.616C443.767 305.11 442.923 305.388 442.052 305.416Z" fill="#0155B6"/>
<path d="M455.29 386.141L455.074 386.818L452.611 394.977L451.626 394.7C440.619 391.421 429.35 389.093 417.944 387.742H417.76H416.867C414.065 387.434 411.294 387.157 408.523 386.972C404.89 386.695 401.319 386.541 397.778 386.479C392.267 386.479 386.849 386.479 381.584 386.757C374.139 387.15 366.719 387.931 359.355 389.096L357.97 389.312C332.544 393.224 307.985 401.494 285.372 413.757L280.6 405.876C303.954 392.903 329.417 384.158 355.814 380.045C360.894 379.213 366.19 378.536 371.639 378.013C382.189 377.016 392.797 376.769 403.382 377.274H404.244C407.015 377.274 409.816 377.613 412.649 377.89H413.726H414.496C418.314 378.259 422.193 378.752 426.134 379.367H426.503C427.027 379.367 427.55 379.367 428.073 379.645H428.628L436.509 381.122H437.064C443.036 382.723 449.132 384.263 455.29 386.141Z" fill="#0155B6"/>
<path d="M426.133 379.463H426.502C421.176 383.004 417.481 385.067 417.019 385.344L413.233 378.694L412.771 377.924V377.708H413.848H414.618C418.354 378.365 422.192 378.95 426.133 379.463Z" fill="#0155B6"/>
<path d="M469.083 338.974C467.514 341.572 465.787 344.07 463.911 346.456C455.607 356.679 445.966 365.74 435.247 373.395C432.169 372.933 427.089 372.317 421.27 371.886C428.844 366.837 436.047 361.25 442.821 355.168C446.277 352.093 449.556 348.824 452.643 345.378C454.336 343.469 455.937 341.529 457.384 339.559C458.675 337.857 459.877 336.09 460.986 334.264L469.083 338.974Z" fill="#0155B6"/>
<path d="M477.581 323.735C476.798 323.191 475.963 322.727 475.087 322.35C472.098 321.107 468.755 321.008 465.697 322.073C462.993 322.944 460.654 324.687 459.047 327.029C458.045 328.467 457.336 330.088 456.961 331.799C456.586 333.511 456.552 335.28 456.861 337.005C457.017 337.857 457.254 338.692 457.569 339.499C458.098 340.819 458.836 342.045 459.755 343.131C460.513 344.048 461.394 344.856 462.372 345.533C462.842 345.866 463.336 346.165 463.85 346.426C465.129 347.153 466.525 347.653 467.975 347.904C468.642 347.949 469.31 347.949 469.976 347.904C470.772 347.908 471.566 347.836 472.347 347.688C474.939 347.227 477.336 346.007 479.234 344.183C481.132 342.359 482.446 340.013 483.01 337.441C483.574 334.87 483.362 332.189 482.401 329.738C481.44 327.287 479.773 325.177 477.612 323.674L477.581 323.735ZM473.332 336.974C472.752 337.814 471.87 338.399 470.869 338.606H470.685C469.609 338.796 468.502 338.553 467.606 337.928C467.17 337.623 466.798 337.235 466.513 336.786C466.228 336.337 466.034 335.836 465.943 335.311C465.836 334.781 465.838 334.235 465.949 333.705C466.06 333.176 466.278 332.675 466.59 332.233C467.211 331.343 468.16 330.737 469.228 330.546C470.295 330.356 471.395 330.597 472.286 331.217C472.471 331.334 472.637 331.48 472.778 331.648C473.495 332.321 473.945 333.23 474.047 334.208C474.148 335.186 473.895 336.167 473.332 336.974Z" fill="#0155B6"/>
<path d="M481.183 357.756C480.607 354.442 478.79 351.473 476.101 349.454C473.412 347.434 470.055 346.517 466.712 346.887C466.395 346.858 466.075 346.858 465.758 346.887C464.033 347.183 462.385 347.821 460.91 348.762C459.435 349.703 458.163 350.929 457.168 352.368C455.521 354.733 454.684 357.569 454.784 360.449C454.884 363.33 455.915 366.101 457.722 368.347C458.532 369.314 459.463 370.173 460.493 370.902C462.711 372.463 465.355 373.301 468.067 373.303C468.862 373.293 469.654 373.221 470.438 373.088C472.162 372.78 473.808 372.135 475.282 371.189C476.756 370.243 478.029 369.016 479.027 367.577C480.015 366.162 480.714 364.566 481.084 362.881C481.453 361.196 481.487 359.454 481.183 357.756ZM471.454 362.435C470.82 363.317 469.872 363.923 468.806 364.129C467.73 364.319 466.623 364.076 465.727 363.451C465.291 363.146 464.92 362.758 464.634 362.309C464.349 361.86 464.155 361.359 464.065 360.834C463.957 360.304 463.959 359.758 464.07 359.228C464.181 358.699 464.399 358.198 464.711 357.756C465.018 357.312 465.41 356.933 465.865 356.643C466.319 356.352 466.827 356.155 467.359 356.062C467.594 356.031 467.832 356.031 468.067 356.062C469.019 356.074 469.937 356.415 470.667 357.026C471.396 357.638 471.892 358.483 472.069 359.418C472.085 359.664 472.085 359.911 472.069 360.157C472.092 360.96 471.878 361.753 471.454 362.435Z" fill="#0155B6"/>
<path d="M455.074 330.785C453.227 329.495 451.08 328.699 448.838 328.473C446.596 328.247 444.334 328.598 442.266 329.492C441.947 329.6 441.639 329.733 441.342 329.893C439.423 330.888 437.775 332.336 436.54 334.111C435.287 335.944 434.506 338.057 434.264 340.264C434.022 342.471 434.328 344.704 435.154 346.764C435.259 347.039 435.382 347.307 435.524 347.565C436.505 349.606 438.001 351.357 439.865 352.645C442.097 354.195 444.751 355.023 447.469 355.015C448.507 355.016 449.54 354.892 450.548 354.646C453.716 353.881 456.496 351.987 458.368 349.32C459.307 347.969 459.986 346.455 460.369 344.856C461.018 342.25 460.858 339.509 459.912 336.996C458.967 334.483 457.279 332.317 455.074 330.785ZM445.16 345.04C444.717 344.739 444.339 344.353 444.048 343.903C443.757 343.454 443.56 342.951 443.467 342.423C443.369 341.868 443.388 341.299 443.522 340.752C443.656 340.205 443.902 339.692 444.245 339.245C444.588 338.798 445.02 338.427 445.514 338.156C446.008 337.885 446.553 337.719 447.114 337.67C447.675 337.621 448.24 337.689 448.774 337.87C449.307 338.05 449.798 338.34 450.213 338.721C450.629 339.101 450.961 339.564 451.188 340.079C451.415 340.595 451.533 341.152 451.533 341.715C451.541 342.539 451.293 343.346 450.825 344.024C450.52 344.464 450.132 344.838 449.682 345.127C449.232 345.416 448.73 345.613 448.203 345.708C447.677 345.802 447.138 345.792 446.615 345.677C446.093 345.563 445.599 345.346 445.16 345.04Z" fill="#0155B6"/>
<path d="M342.454 165.732L340.853 166.133L339.375 166.471C334.193 167.754 328.908 168.578 323.581 168.934C309.326 169.969 295.024 167.726 281.771 162.376C267.969 156.766 255.72 147.917 246.057 136.576C245.134 135.529 244.302 134.503 243.563 133.497C241.189 130.571 239.018 127.485 237.067 124.261L236.698 123.645L235.928 122.352L234.789 120.413L231.71 121.429L227.215 122.968L176.169 140.548L171.705 142.087L167.302 143.596L162.838 145.135L120.073 159.883L131.095 237.068L131.311 238.545L132.019 243.595L137.9 243.318H139.87L160.806 240.67L124.784 321.611L124.384 322.381L118.626 333.464L118.442 333.834L118.041 334.573L117.426 335.773L114.347 341.931L116.872 343.532C119.119 343.224 121.367 342.947 123.645 342.731C126.477 342.454 129.31 342.239 132.173 342.116L126.477 338.637L128.294 335.127L129.402 333.002L131.095 329.924L131.434 329.277L138.084 316.469V316.254L176.415 230.633L149.383 233.712H146.859L139.993 233.989L139.531 230.664L139.193 228.386L130.326 166.256L163.761 154.741L172.813 151.662L229.216 132.235L230.756 131.712C231.895 133.467 233.219 135.376 234.758 137.408C236.297 139.44 238.175 141.625 240.146 143.965C241.654 145.689 243.225 147.414 245.103 149.168C254.596 158.53 265.843 165.927 278.2 170.935C297.386 178.655 318.439 180.478 338.667 176.169L389.159 247.874L352.706 311.974L320.533 282.911L279.031 397.164L277.091 402.552L275.767 406.401L274.074 405.877C276.127 408.443 278.179 411.06 280.232 413.728L282.11 416.407L283.895 411.45L285.927 405.877L324.535 299.136L355.077 326.629L399.935 247.351L342.454 165.732Z" fill="#0155B6"/>
<path d="M234.533 121.723L230.975 130.247L338.739 175.237L342.297 166.713L234.533 121.723Z" fill="#0155B6"/>
<path d="M455.013 180.204H453.812C439.153 180.666 424.972 185.526 413.11 194.151C404.959 200.1 398.16 207.707 393.16 216.472C392.298 217.95 391.528 219.551 390.851 220.813C390.174 222.076 389.25 224.292 388.634 225.863L386.756 230.604L386.448 231.404H387.495L391.682 231.928H392.36C394.862 232.234 397.381 232.388 399.903 232.39C409.917 232.442 419.785 229.975 428.597 225.216C442.926 217.095 453.478 203.655 457.968 187.809C458.153 187.132 458.307 186.516 458.43 186.023L459.846 180.173L455.013 180.204ZM424.225 217.334C416.772 221.392 408.419 223.509 399.933 223.492C404.324 214.905 410.648 207.454 418.406 201.725C426.932 195.521 436.866 191.532 447.316 190.118C443.078 201.634 434.897 211.277 424.225 217.334Z" fill="#0155B6"/>
<path d="M453.812 46.6764C439.153 47.1383 424.972 51.9977 413.11 60.6233C402.532 68.3998 394.264 78.9026 389.188 91.0108C389.104 91.1691 389.032 91.3338 388.973 91.5034C388.973 91.7805 388.727 92.0268 388.634 92.3039L386.448 97.8457L392.36 98.5846L394.915 98.8309C395.962 98.8309 397.101 98.8309 398.302 99.0157H399.903C403.525 99.0295 407.141 98.7204 410.709 98.092C416.988 97.0344 423.052 94.9543 428.658 91.9345C436.046 87.698 442.495 82.0035 447.613 75.1971C452.731 68.3907 456.411 60.6145 458.43 52.3413L459.846 46.4609L453.812 46.6764ZM424.225 83.7757C417.347 87.4997 409.691 89.5561 401.873 89.7793C401.196 89.7793 400.549 89.7793 399.933 89.7793C400.149 89.3791 400.364 88.9788 400.611 88.5786C405.043 80.4808 411.228 73.4753 418.714 68.0739C427.237 61.865 437.173 57.876 447.624 56.4669C443.327 68.0671 435.029 77.7517 424.225 83.7757Z" fill="#0155B6"/>
<path d="M371.825 102.37C369.951 99.6755 367.894 97.114 365.667 94.7038C358.016 86.3827 348.528 79.9624 337.958 75.954C325.18 71.1448 311.297 70.0768 297.934 72.8752L292.084 74.0452L294.701 79.4023C300.239 90.7182 309.144 100.043 320.193 106.095C328.791 110.656 338.386 113.015 348.118 112.961C355.453 112.972 362.737 111.754 369.669 109.359L370.254 109.143L375.365 107.327L371.825 102.37ZM324.596 97.9365C317.111 93.8963 310.76 88.0423 306.123 80.9109C315.764 79.9223 325.503 81.1871 334.571 84.6054C344.471 88.319 353.287 94.4465 360.218 102.432C348.187 105.213 335.559 103.619 324.596 97.9365Z" fill="#0155B6"/>
<path d="M360.37 238.698C358.196 232.691 354.824 227.189 350.457 222.526C346.091 217.863 340.821 214.137 334.97 211.574L329.428 209.173L328.566 215.33C327.094 225.497 328.551 235.873 332.767 245.241C336.982 254.609 343.78 262.582 352.365 268.224L353.873 269.178L358.953 272.257L360.708 266.561C360.708 266.13 360.985 265.638 361.109 265.114C363.477 256.429 363.22 247.237 360.37 238.698ZM341.897 242.824C338.921 236.765 337.343 230.116 337.279 223.366C343.947 227.713 348.992 234.142 351.626 241.654C353.304 246.654 353.851 251.965 353.227 257.202C348.499 253.242 344.641 248.347 341.897 242.824Z" fill="#0155B6"/>
<path d="M374.442 5.32708L371.548 0.000793457L367.176 4.18794C359.267 11.7811 353.818 21.5732 351.536 32.2972C351.32 33.2824 351.166 34.2368 351.012 35.1913C350.027 41.8096 350.278 48.5532 351.751 55.0802C352.289 57.485 352.988 59.8507 353.845 62.1614L355.938 67.7648L360.803 64.3473C361.572 63.7931 362.465 63.1466 363.42 62.3769L363.974 61.8843C370.223 56.7247 374.957 49.9687 377.675 42.334C379.669 36.268 380.41 29.8601 379.855 23.4989C379.299 17.1377 377.458 10.9555 374.442 5.32708ZM368.962 39.1937C367.188 44.1397 364.339 48.63 360.618 52.3401C359.298 46.0414 359.361 39.5314 360.801 33.2593C362.242 26.9872 365.026 21.1022 368.962 16.0105C371.516 23.5481 371.516 31.7176 368.962 39.2552V39.1937Z" fill="#0155B6"/>
<path d="M386.112 171.399L381.586 163.363C381.925 163.178 416.099 143.72 430.323 120.26L438.205 125.032C422.749 150.586 387.59 170.567 386.112 171.399Z" fill="#0155B6"/>
<path d="M452.213 118.288C451.917 116.563 451.28 114.915 450.339 113.44C449.397 111.965 448.172 110.693 446.732 109.698C443.837 107.705 440.271 106.936 436.812 107.559C433.352 108.181 430.278 110.145 428.26 113.023C427.67 113.865 427.185 114.775 426.813 115.733C425.567 118.845 425.567 122.318 426.813 125.431C427.731 127.926 429.398 130.077 431.585 131.588C432.055 131.922 432.549 132.22 433.063 132.481C434.961 133.479 437.075 133.997 439.22 133.99H440.513L441.591 133.836C443.315 133.528 444.961 132.883 446.435 131.937C447.909 130.991 449.182 129.764 450.181 128.325C451.175 126.874 451.868 125.237 452.217 123.513C452.566 121.789 452.564 120.012 452.213 118.288ZM442.484 122.968C442.183 123.407 441.795 123.781 441.346 124.067C440.896 124.353 440.393 124.544 439.867 124.63C439.312 124.728 438.743 124.709 438.196 124.575C437.648 124.441 437.135 124.195 436.688 123.852C436.241 123.509 435.87 123.077 435.599 122.583C435.328 122.089 435.163 121.544 435.114 120.983C435.064 120.422 435.132 119.857 435.313 119.323C435.494 118.79 435.784 118.299 436.164 117.884C436.545 117.468 437.007 117.136 437.523 116.909C438.038 116.682 438.595 116.564 439.159 116.564C439.998 116.553 440.818 116.812 441.498 117.303C441.938 117.604 442.312 117.991 442.598 118.441C442.884 118.891 443.075 119.394 443.161 119.92C443.347 120.985 443.103 122.081 442.484 122.968Z" fill="#0155B6"/>
<path d="M445.837 132.944C445.475 132.689 445.095 132.463 444.698 132.267C442.955 131.291 441.013 130.722 439.018 130.605C437.024 130.488 435.029 130.824 433.183 131.59C430.802 132.532 428.755 134.161 427.303 136.27C425.301 139.162 424.528 142.73 425.151 146.192C425.774 149.655 427.743 152.729 430.628 154.742C432.848 156.294 435.493 157.122 438.202 157.113C438.997 157.118 439.791 157.046 440.572 156.897C442.838 156.492 444.96 155.505 446.73 154.034C447.63 153.268 448.426 152.388 449.1 151.417C450.737 149.089 451.559 146.286 451.44 143.443C451.391 141.377 450.858 139.352 449.885 137.529C448.912 135.706 447.525 134.136 445.837 132.944ZM441.557 146.214C441.256 146.654 440.869 147.028 440.419 147.313C439.97 147.599 439.466 147.791 438.94 147.877C438.41 147.977 437.865 147.972 437.337 147.861C436.808 147.75 436.307 147.535 435.862 147.23C434.982 146.637 434.356 145.737 434.107 144.705C434.011 144.173 434.021 143.627 434.137 143.098C434.254 142.57 434.473 142.07 434.784 141.627C435.162 141.089 435.665 140.652 436.25 140.352C436.834 140.051 437.483 139.897 438.14 139.902H438.479C439.187 139.935 439.871 140.17 440.449 140.58C441.215 141.113 441.774 141.894 442.032 142.791C442.29 143.689 442.231 144.647 441.865 145.506C441.798 145.756 441.694 145.994 441.557 146.214Z" fill="#0155B6"/>
<path d="M426.843 122.353C426.746 121.778 426.602 121.211 426.412 120.66C425.495 117.92 423.712 115.553 421.332 113.917C420.874 113.59 420.39 113.301 419.885 113.055C417.288 111.653 414.288 111.185 411.387 111.731C408.089 112.286 405.121 114.063 403.074 116.709C401.028 119.354 400.053 122.674 400.344 126.006C400.635 129.337 402.171 132.437 404.646 134.688C407.12 136.938 410.352 138.173 413.696 138.147C414.492 138.153 415.286 138.081 416.067 137.932C416.33 137.899 416.588 137.837 416.837 137.747C420.024 137.007 422.815 135.095 424.657 132.39C425.609 131.016 426.307 129.484 426.72 127.864C427.131 126.054 427.173 124.18 426.843 122.353ZM414.528 128.726C413.452 128.917 412.345 128.673 411.449 128.049C411.012 127.742 410.64 127.352 410.354 126.901C410.068 126.45 409.874 125.947 409.782 125.421C409.691 124.894 409.704 124.355 409.821 123.834C409.938 123.313 410.156 122.82 410.464 122.384C410.764 121.941 411.151 121.563 411.6 121.272C412.05 120.981 412.553 120.783 413.08 120.691H413.789C414.626 120.69 415.443 120.948 416.128 121.429C417.002 122.055 417.598 122.997 417.787 124.056C417.977 125.114 417.747 126.204 417.144 127.094C416.825 127.534 416.42 127.904 415.955 128.185C415.49 128.465 414.973 128.649 414.435 128.726H414.528Z" fill="#0155B6"/>
<path d="M303.137 404.493C302.224 404.492 301.332 404.22 300.573 403.713C299.814 403.205 299.223 402.485 298.874 401.641C298.525 400.798 298.433 399.87 298.611 398.975C298.789 398.079 299.228 397.257 299.873 396.611C325.704 370.872 385.617 299.783 384.478 195.69C383.739 127.957 351.966 50.0018 329.614 16.3815C328.936 15.3608 328.692 14.1127 328.934 12.9118C329.177 11.7108 329.887 10.6554 330.907 9.97763C331.928 9.2999 333.176 9.05539 334.377 9.29789C335.578 9.54039 336.633 10.25 337.311 11.2707C360.279 45.8454 392.975 125.863 393.714 195.597C394.884 303.355 333.032 376.599 306.4 403.138C305.975 403.571 305.467 403.914 304.906 404.147C304.345 404.38 303.744 404.497 303.137 404.493Z" fill="#0155B6"/>
<path d="M362.557 318.133L353.629 315.762C357.425 299.479 356.83 282.479 351.905 266.501L360.648 263.423C366.221 281.151 366.881 300.059 362.557 318.133Z" fill="#0155B6"/>
<path d="M377.335 137.192C375.334 104.957 389.158 91.2875 389.65 90.7025L396.085 97.3219C396.085 97.3219 384.847 108.991 386.571 136.638L377.335 137.192Z" fill="#0155B6"/>
<path d="M408.679 386.572C412.374 386.972 415.36 387.373 416.869 387.588C414.067 387.28 411.296 387.003 408.526 386.818C404.893 386.541 401.321 386.387 397.781 386.326C392.27 386.326 386.851 386.326 381.586 386.603C387.027 385.443 392.618 385.152 398.15 385.741C401.814 385.926 405.508 386.264 408.679 386.572Z" fill="#0155B6"/>
</g>
<defs>
<clipPath id="clip0_327_2324">
<rect width="517.081" height="510" fill="white"/>
</clipPath>
</defs>
</svg>
