<svg width="272" height="44" viewBox="0 0 272 44" fill="none" xmlns="http://www.w3.org/2000/svg">
<g clip-path="url(#clip0_240_1914)">
<path d="M34.7511 33.3244C34.6809 33.3096 34.608 33.3159 34.5415 33.3426C34.475 33.3692 34.4179 33.4151 34.3775 33.4743C33.945 34.0887 33.4756 34.6762 32.972 35.2338C32.7885 35.4435 32.5968 35.6474 32.397 35.8456C30.4565 37.8161 28.0997 39.3274 25.4993 40.2688C25.2536 40.3548 25.0275 40.4334 24.7892 40.5145C23.2948 40.9852 21.7465 41.2635 20.1818 41.3426C19.936 41.3426 19.6903 41.3623 19.4446 41.3647H19.2357C16.7042 41.3667 14.1993 40.8471 11.8775 39.8384C9.55558 38.8297 7.46642 37.3534 5.74024 35.5016C5.57069 35.3222 5.40605 35.1404 5.24879 34.9536C4.33115 33.894 3.53724 32.7332 2.88241 31.4938C2.76446 31.2726 2.65143 31.049 2.5433 30.8229C2.13606 29.9783 1.79511 29.1034 1.52353 28.2059C1.43998 27.9331 1.3638 27.6555 1.295 27.3778C0.923914 25.9027 0.736558 24.3873 0.737194 22.8662C0.737194 22.6524 0.737194 22.4386 0.737194 22.2273C0.737194 21.9545 0.759309 21.6818 0.781425 21.4139C1.0166 18.472 1.95181 15.629 3.50903 13.122C5.06626 10.6149 7.20036 8.51656 9.73335 7.00191C9.96433 6.86185 10.2002 6.7267 10.4386 6.59892C11.9161 5.79759 13.4972 5.20388 15.1369 4.83458C15.4171 4.77069 15.6972 4.71417 15.9798 4.66503C19.5178 4.03376 23.1631 4.44705 26.47 5.85436C26.538 5.88369 26.6134 5.89155 26.686 5.87687C26.7586 5.8622 26.825 5.8257 26.8763 5.77226C26.9276 5.71881 26.9614 5.65097 26.9731 5.57782C26.9848 5.50466 26.9739 5.42968 26.9418 5.3629C26.9047 5.28289 26.8389 5.21974 26.7575 5.18597C24.3812 4.1692 21.8228 3.64666 19.2382 3.65016C17.9441 3.64948 16.6533 3.77873 15.3851 4.03596C15.0976 4.09739 14.8126 4.16128 14.53 4.235C12.8609 4.65564 11.2564 5.30039 9.76038 6.15169C9.51465 6.29176 9.26892 6.43428 9.03793 6.58663C6.54797 8.14323 4.44734 10.2491 2.89695 12.7429C1.34656 15.2368 0.387546 18.0524 0.0933828 20.9741C0.0638953 21.2518 0.044237 21.5442 0.0294932 21.8169C5.68655e-06 22.1634 5.68656e-06 22.5271 5.68656e-06 22.8662C-0.00109347 24.2931 0.157154 25.7157 0.471806 27.1075C0.535696 27.395 0.606957 27.68 0.685591 27.9602C1.00046 29.1079 1.42251 30.2235 1.94618 31.2923C2.05676 31.5183 2.17225 31.7444 2.29266 31.9656C2.96232 33.2062 3.76484 34.3705 4.68606 35.4377C4.84988 35.6228 5.0137 35.8047 5.17752 35.9832C6.97318 37.9147 9.1481 39.4548 11.5662 40.5072C13.9843 41.5596 16.5936 42.1016 19.2308 42.0994H19.4765C19.7255 42.0994 19.9713 42.0921 20.2137 42.0773C21.7923 41.9981 23.3549 41.7224 24.8654 41.2566C25.1111 41.1853 25.3568 41.1067 25.5853 41.0109C29.3814 39.6722 32.6641 37.1807 34.9747 33.8847C35.0097 33.8353 35.032 33.7779 35.0397 33.7178C35.0473 33.6577 35.0399 33.5966 35.0183 33.54C34.9967 33.4834 34.9614 33.433 34.9157 33.3932C34.8699 33.3535 34.8151 33.3256 34.756 33.3122L34.7511 33.3244Z" fill="white"/>
<path d="M10.2765 26.9353L9.95954 27.0606C7.18153 28.0998 4.14163 28.211 1.29512 27.3776C1.01744 27.2965 0.742226 27.2056 0.471924 27.1073C0.535813 27.3948 0.607075 27.6798 0.685708 27.96C0.960925 28.0509 1.24106 28.132 1.52365 28.2057C2.71112 28.5151 3.93332 28.6712 5.16044 28.6701C5.78733 28.6698 6.41357 28.6296 7.03536 28.5497C7.81424 28.4494 8.58352 28.285 9.33538 28.0583L9.47545 28.014C9.57538 27.9845 9.67613 27.9526 9.7777 27.9182C10.0234 27.8371 10.2692 27.7486 10.4928 27.6553L11.0235 26.633V26.6158C10.7803 26.7264 10.5296 26.8345 10.2765 26.9353ZM19.4889 12.3979C19.4889 12.3684 19.4889 12.3414 19.4889 12.3119C19.4889 12.2824 19.4889 12.2505 19.4766 12.221C19.4643 12.1915 19.4619 12.108 19.4521 12.0514C19.4275 11.8893 19.4005 11.7295 19.371 11.56C19.371 11.4912 19.3439 11.4199 19.3292 11.3511C18.8213 8.86254 17.6631 6.55296 15.9725 4.65745C15.7784 4.43875 15.5794 4.22497 15.373 4.01855C15.0855 4.07999 14.8004 4.14388 14.5178 4.2176C14.7291 4.41418 14.9331 4.61568 15.1297 4.827C16.7856 6.57858 17.9487 8.737 18.5011 11.0833C18.5183 11.1496 18.533 11.216 18.5478 11.2823C18.5625 11.3487 18.5724 11.3855 18.5797 11.4396C18.5809 11.4469 18.5809 11.4544 18.5797 11.4617C18.6092 11.6018 18.6362 11.7467 18.6608 11.8893C18.6756 11.9654 18.6878 12.0441 18.7001 12.1203C18.7124 12.1964 18.7222 12.2701 18.7321 12.3463C18.8599 12.5183 19.0048 12.6977 19.1695 12.8845C19.2899 13.0221 19.4152 13.1597 19.5651 13.2998C19.5528 12.9975 19.5258 12.6977 19.4889 12.3979Z" fill="white"/>
<path d="M14.0605 12.6117C14.0335 12.4077 13.9942 12.2062 13.9499 12.0072C13.466 9.84222 12.2197 7.92346 10.4385 6.60115C10.2173 6.43651 9.99123 6.2817 9.75533 6.13672C9.5096 6.27678 9.26387 6.41931 9.03288 6.57166C9.27369 6.70353 9.50745 6.84789 9.73321 7.00414C11.5097 8.21946 12.7585 10.0638 13.2275 12.1645C13.2791 12.393 13.3209 12.6289 13.3528 12.8648C13.3528 12.8648 13.3528 12.8795 13.3528 12.8869L14.0777 12.7419C14.0748 12.6982 14.069 12.6547 14.0605 12.6117ZM11.7212 20.045L11.1732 20.0696L11.1363 19.8042C11.0282 19.9197 10.9176 20.0327 10.8046 20.1408C10.6916 20.249 10.5908 20.3399 10.4802 20.4357C9.16209 21.5747 7.52516 22.28 5.79202 22.4559C4.05889 22.6317 2.31364 22.2696 0.793576 21.4186C0.552562 21.2826 0.318802 21.1342 0.0932476 20.9739C0.06376 21.2515 0.0441017 21.544 0.0293579 21.8167C0.275087 21.9641 0.503616 22.1018 0.749345 22.2271C2.42286 23.0807 4.31742 23.4022 6.17885 23.1483C8.04028 22.8944 9.77956 22.0774 11.1634 20.8068C11.2272 20.7511 11.2911 20.6921 11.355 20.6298C11.5516 20.4382 11.7408 20.2391 11.9227 20.0303L11.7212 20.045Z" fill="white"/>
<path d="M25.4995 40.2687C25.4356 39.8362 25.3545 39.4111 25.2538 38.9933C25.2022 38.7697 25.1407 38.5461 25.0769 38.3274C24.6446 36.8619 23.981 35.4749 23.111 34.2188C23.0742 34.1623 23.0373 34.1082 22.998 34.0542L22.7989 33.779L22.6712 33.6119C22.6122 33.5332 22.5532 33.4571 22.4918 33.3809C22.4304 33.3047 22.3394 33.1917 22.2608 33.1007C20.907 31.4845 19.2152 30.1848 17.3047 29.2932C15.3941 28.4016 13.3113 27.9399 11.203 27.9404C10.9941 27.9404 10.7877 27.9404 10.5813 27.9552H10.3233C10.1193 27.9675 9.92027 27.9822 9.72123 28.0019L9.45338 28.0338L9.32806 28.0486C8.54913 28.1486 7.77983 28.313 7.02803 28.54C5.40946 29.0288 3.88972 29.7991 2.53856 30.8155C2.33706 30.9654 2.13802 31.1226 1.94635 31.2848C2.05693 31.5109 2.17242 31.7369 2.29283 31.9581C2.48204 31.7935 2.67862 31.6362 2.87766 31.4863C4.75425 30.0396 6.976 29.1079 9.32315 28.7833C9.50253 28.7587 9.68191 28.7366 9.86375 28.7194C10.0898 28.6973 10.3159 28.6801 10.5444 28.6702C10.7729 28.6604 10.9622 28.653 11.171 28.653H11.203C13.1617 28.6522 15.0979 29.0719 16.8805 29.8837C18.6631 30.6955 20.2507 31.8806 21.5359 33.3588C21.6506 33.4915 21.7636 33.6266 21.875 33.7642C22.0388 33.969 22.2026 34.1779 22.3665 34.3908L22.5164 34.6046C23.7295 36.3643 24.5123 38.3844 24.8016 40.5021C24.836 40.7478 24.8631 40.9936 24.8827 41.2393C25.1285 41.168 25.3742 41.0894 25.6027 40.9936C25.556 40.765 25.5364 40.5169 25.4995 40.2687Z" fill="white"/>
<path d="M20.1817 41.3374C20.0328 39.6779 19.4373 38.0897 18.4583 36.7415C17.4793 35.3933 16.1534 34.3354 14.6215 33.6802C13.0896 33.025 11.4088 32.7969 9.75766 33.0202C8.10653 33.2435 6.5467 33.9099 5.24384 34.9484C5.05217 35.1008 4.86542 35.263 4.68604 35.4399C4.84985 35.625 5.01367 35.8069 5.17749 35.9854C5.35688 35.8159 5.54363 35.6561 5.73776 35.494C6.93509 34.5495 8.36483 33.9452 9.87657 33.7446C11.3883 33.544 12.9262 33.7545 14.3284 34.354C15.7306 34.9535 16.9453 35.9198 17.8448 37.1514C18.7443 38.3829 19.2952 39.834 19.4396 41.3522C19.4642 41.5979 19.4765 41.8436 19.4789 42.0893C19.728 42.0893 19.9737 42.082 20.2161 42.0672C20.2145 41.8182 20.203 41.5749 20.1817 41.3374Z" fill="white"/>
<path d="M32.0137 26.7044L31.8835 26.24L31.4682 26.4857C30.7151 26.9359 30.1155 27.6031 29.7481 28.4C29.4147 29.1324 29.2938 29.9439 29.3992 30.7418C29.3992 30.7418 29.3992 30.7565 29.3992 30.7639L29.4631 31.2357L29.9029 31.0563C29.9815 31.0243 30.0749 30.9826 30.1781 30.9334C30.7609 30.6376 31.2532 30.1902 31.6034 29.6384C31.8672 29.2028 32.0396 28.718 32.1101 28.2136C32.1807 27.7092 32.1479 27.1957 32.0137 26.7044ZM30.9915 29.2502C30.7673 29.6067 30.4658 29.9082 30.1093 30.1323C30.1151 29.6151 30.2335 29.1054 30.4563 28.6386C30.6791 28.1718 31.0009 27.7591 31.3994 27.4293C31.4698 28.0663 31.3263 28.7086 30.9915 29.2551V29.2502Z" fill="white"/>
<path d="M32.9867 35.2608L32.9719 35.2337C32.6497 34.6323 32.191 34.1148 31.6327 33.7225C31.4873 33.6176 31.3345 33.5232 31.1757 33.4399C31.1093 33.4055 31.0405 33.3711 30.9742 33.3416C30.3065 33.0313 29.5704 32.8977 28.8363 32.9534L28.3621 32.9902L28.5144 33.4399C28.7222 34.0467 29.0847 34.5888 29.5661 35.0126C29.6495 35.0874 29.7373 35.1572 29.8291 35.2215C29.9474 35.3047 30.0705 35.381 30.1977 35.45C30.734 35.7317 31.3316 35.8769 31.9374 35.8726C32.091 35.8735 32.2445 35.8644 32.3969 35.8456C32.5118 35.8345 32.6258 35.8164 32.7385 35.7915L33.2103 35.6883L32.9867 35.2608ZM30.7161 34.8824C30.5567 34.8101 30.4045 34.7229 30.2615 34.6219C30.1943 34.5736 30.1295 34.5219 30.0674 34.4671C29.8118 34.2468 29.5972 33.9831 29.4334 33.6881C29.8036 33.7139 30.1674 33.7968 30.5122 33.9338C30.6228 33.9781 30.7311 34.0282 30.8366 34.0837C30.9594 34.1474 31.0777 34.2197 31.1904 34.3C31.5196 34.5264 31.8086 34.8063 32.0455 35.1281C31.5894 35.1492 31.1346 35.0651 30.7161 34.8824Z" fill="white"/>
<path d="M30.2026 30.9505C30.0337 31.1611 29.8532 31.3621 29.662 31.5526C29.259 31.958 28.8461 32.2897 28.679 32.4372L28.5685 32.4544L28.1458 31.9212L28.3915 31.7147C28.7479 31.4141 29.0852 31.0916 29.4015 30.749C29.4777 30.6655 29.5489 30.5795 29.6153 30.5033L30.1829 30.9481L30.2026 30.9505Z" fill="white"/>
<path d="M30.2567 34.6217C30.3996 34.7228 30.5518 34.81 30.7113 34.8822C30.5393 35.0812 30.3673 35.2704 30.1977 35.4498C27.8092 38.0005 25.5755 38.9097 25.4183 38.9711C25.376 38.9876 25.331 38.9959 25.2856 38.9957H25.2512C25.1761 38.9892 25.1048 38.9598 25.0471 38.9113C24.9894 38.8629 24.948 38.7978 24.9287 38.7249C24.9093 38.6521 24.9129 38.575 24.939 38.5043C24.965 38.4336 25.0123 38.3726 25.0743 38.3298C25.0965 38.3121 25.1214 38.298 25.148 38.288C25.1848 38.2732 27.2809 37.4132 29.5711 35.0149C29.7357 34.8404 29.9028 34.6586 30.0626 34.4694C30.1247 34.5234 30.1894 34.5742 30.2567 34.6217Z" fill="white"/>
<path d="M31.6794 32.6682C31.7457 32.6728 31.8096 32.6949 31.8646 32.7322C31.9196 32.7696 31.9637 32.8208 31.9924 32.8808C32.0211 32.9407 32.0334 33.0072 32.0281 33.0735C32.0227 33.1397 31.9999 33.2034 31.962 33.2579C31.8539 33.4177 31.7433 33.5725 31.6327 33.7224C31.4853 33.9239 31.3354 34.1204 31.1855 34.3072C31.0727 34.2269 30.9545 34.1546 30.8316 34.091C30.7262 34.0354 30.6179 33.9854 30.5073 33.9411C30.6645 33.7494 30.8193 33.5479 30.9741 33.3415C31.097 33.1768 31.2199 33.0048 31.3427 32.8304C31.3799 32.7763 31.4304 32.7329 31.4895 32.7045C31.5485 32.676 31.614 32.6635 31.6794 32.6682Z" fill="white"/>
<path d="M32.9277 31.5477H33.0137C33.0145 31.5534 33.0145 31.5592 33.0137 31.5649L32.9842 31.6189C32.8638 31.8327 32.7385 32.0367 32.6206 32.2382L32.6083 32.2578C32.3183 32.2357 32.0333 32.2234 31.7507 32.2185L31.7802 32.1718C31.9202 31.9507 32.0603 31.7197 32.1979 31.4838H32.2667C32.4854 31.5083 32.709 31.5255 32.9277 31.5477Z" fill="white"/>
<path d="M40.2037 21.9839C39.5976 22.1899 39.0151 22.4601 38.4664 22.7899C38.2112 22.9435 37.965 23.1117 37.7292 23.2937C37.5347 23.4379 37.3477 23.5921 37.169 23.7556C36.8935 24.0061 36.6349 24.2745 36.3949 24.5592C36.1145 24.8938 35.8591 25.2486 35.6307 25.6207C35.3068 26.1376 35.0453 26.6911 34.8517 27.2696C34.8075 27.4072 34.7657 27.5423 34.7191 27.6775C34.7191 27.6947 34.7191 27.7119 34.7019 27.7291C34.552 28.1788 34.3922 28.6088 34.2251 29.0241C34.2055 29.0732 34.1858 29.1224 34.1637 29.1715C33.8934 29.8399 33.6034 30.464 33.2987 31.0489C33.0309 31.0341 32.7483 31.0268 32.4633 31.0292C33.1549 29.761 33.7195 28.4276 34.149 27.0484C34.3434 26.4645 34.6022 25.9041 34.9206 25.3775C34.9771 25.2816 35.0385 25.1858 35.0999 25.0875C35.2936 24.7841 35.5044 24.492 35.7315 24.2127C36.0201 23.8574 36.3347 23.5239 36.6726 23.215C37.0018 22.9159 37.3534 22.6423 37.7243 22.3968C37.9553 22.2419 38.1961 22.097 38.4443 21.9618C38.9318 21.6983 39.4406 21.4763 39.9654 21.2983C40.0112 21.2822 40.0597 21.2753 40.1083 21.2779C40.1568 21.2805 40.2043 21.2927 40.2481 21.3137C40.2919 21.3347 40.3312 21.3641 40.3636 21.4002C40.396 21.4364 40.421 21.4786 40.4372 21.5244C40.4533 21.5702 40.4603 21.6188 40.4576 21.6673C40.455 21.7158 40.4428 21.7633 40.4219 21.8071C40.4009 21.8509 40.3714 21.8902 40.3353 21.9226C40.2991 21.9551 40.2569 21.9801 40.2111 21.9962L40.2037 21.9839Z" fill="white"/>
<path d="M38.8941 16.0249L38.732 15.5703L38.3339 15.8455C37.7643 16.2472 37.2701 16.7463 36.8742 17.3199C36.6083 17.7012 36.3904 18.1139 36.2255 18.5486C35.8611 19.5201 35.766 20.572 35.9503 21.5931C35.9503 21.6447 35.97 21.6914 35.9798 21.7381L36.0756 22.205L36.5032 21.9961L36.5966 21.9494C36.9794 21.7496 37.3353 21.5019 37.6557 21.2123C37.9025 20.9916 38.1242 20.7444 38.3167 20.4751C38.4336 20.3145 38.5395 20.1462 38.6337 19.9713C38.9434 19.3659 39.1263 18.7036 39.1711 18.025C39.2159 17.3464 39.1216 16.6658 38.8941 16.0249ZM38.1348 19.298C38.0906 19.4037 38.039 19.5094 37.9825 19.615C37.8604 19.8455 37.7137 20.0622 37.5451 20.2613C37.2782 20.5806 36.9641 20.8574 36.6138 21.082C36.5349 20.3134 36.6358 19.5369 36.9086 18.8139C36.9802 18.6316 37.0622 18.4535 37.1544 18.2807C37.305 17.9883 37.4844 17.7117 37.6901 17.4551C37.8822 17.2087 38.0978 16.9816 38.3339 16.7768C38.5283 17.6177 38.4588 18.4981 38.1348 19.298Z" fill="white"/>
<path d="M40.8943 32.7959C40.2097 32.2527 39.3774 31.9282 38.5058 31.8646C37.7538 31.8093 37.0005 31.9526 36.3213 32.2799L36.1665 32.3585L35.8716 32.5158L35.7463 32.5821L35.7979 32.6387L36.0436 32.9065L36.0657 32.9311C36.5755 33.4895 37.2461 33.8758 37.9849 34.0369C38.2162 34.0839 38.4516 34.1078 38.6877 34.1081C39.4734 34.0969 40.2371 33.8466 40.8771 33.3906L41.2826 33.0933L40.8943 32.7959ZM38.1372 33.3046C37.726 33.2168 37.3398 33.038 37.0069 32.7812C37.4926 32.6088 38.0101 32.5446 38.5233 32.593C39.0364 32.6414 39.5328 32.8012 39.9777 33.0613C39.4077 33.3426 38.7608 33.4281 38.1372 33.3046Z" fill="white"/>
<path d="M34.9131 25.412C34.8683 24.0114 35.2598 22.6315 36.0336 21.4631L36.6479 21.871C35.9571 22.9115 35.6084 24.1417 35.6503 25.3899L34.9131 25.412Z" fill="white"/>
<path d="M35.2819 25.7706C35.2212 25.7702 35.1615 25.755 35.1079 25.7263C35.0544 25.6976 35.0087 25.6563 34.9747 25.6059C34.9479 25.5656 34.9294 25.5204 34.92 25.4729C34.9107 25.4253 34.9109 25.3764 34.9204 25.329C34.93 25.2815 34.9489 25.2364 34.9759 25.1962C35.0029 25.156 35.0376 25.1216 35.0779 25.0948C36.5523 24.1119 38.6484 24.5149 38.7369 24.5345C38.7842 24.5439 38.8292 24.5626 38.8693 24.5894C38.9094 24.6163 38.9438 24.6508 38.9706 24.691C38.9973 24.7312 39.0158 24.7763 39.025 24.8236C39.0342 24.871 39.034 24.9197 39.0244 24.967C39.0147 25.0156 38.9955 25.0617 38.9678 25.1026C38.9401 25.1436 38.9045 25.1787 38.863 25.2057C38.8216 25.2327 38.7752 25.2512 38.7265 25.26C38.6778 25.2688 38.6279 25.2678 38.5796 25.257C38.5624 25.257 36.7047 24.8909 35.476 25.7067C35.4188 25.7461 35.3514 25.7683 35.2819 25.7706Z" fill="white"/>
<path d="M36.3384 32.2136L36.3212 32.2677L36.1247 32.9189L36.046 32.8967C35.1675 32.635 34.2681 32.4492 33.3577 32.3414H33.343H33.2717C33.0481 32.3168 32.827 32.2947 32.6058 32.28C32.3158 32.2578 32.0308 32.2456 31.7482 32.2406C31.3084 32.2406 30.8759 32.2406 30.4557 32.2628C29.8614 32.2942 29.2693 32.3565 28.6815 32.4495L28.5709 32.4667C26.5416 32.7789 24.5815 33.439 22.7766 34.4178L22.3958 33.7887C24.2598 32.7533 26.2921 32.0554 28.3989 31.7271C28.8044 31.6607 29.227 31.6067 29.662 31.5649C30.504 31.4853 31.3506 31.4656 32.1954 31.5059H32.2642C32.4854 31.5059 32.709 31.5329 32.9351 31.5551H33.0211H33.0825C33.3872 31.5845 33.6968 31.6239 34.0114 31.673H34.0409C34.0826 31.673 34.1244 31.673 34.1662 31.6951H34.2104L34.8395 31.8131H34.8837C35.3604 31.9409 35.847 32.0637 36.3384 32.2136Z" fill="white"/>
<path d="M34.0113 31.6806H34.0408C33.6157 31.9632 33.3208 32.1278 33.2839 32.1499L32.9817 31.6192L32.9448 31.5577V31.5405H33.0308H33.0923C33.3904 31.5929 33.6968 31.6396 34.0113 31.6806Z" fill="white"/>
<path d="M37.4393 28.449C37.3141 28.6563 37.1763 28.8557 37.0265 29.0461C36.3637 29.8621 35.5943 30.5853 34.7388 31.1962C34.493 31.1594 34.0876 31.1102 33.6232 31.0758C34.2277 30.6728 34.8026 30.2269 35.3433 29.7415C35.6191 29.496 35.8808 29.2351 36.1272 28.9601C36.2623 28.8077 36.3901 28.6529 36.5056 28.4957C36.6086 28.3598 36.7046 28.2187 36.7931 28.073L37.4393 28.449Z" fill="white"/>
<path d="M38.1176 27.2328C38.0551 27.1893 37.9884 27.1523 37.9185 27.1222C37.6799 27.023 37.4131 27.0151 37.1691 27.1001C36.9532 27.1696 36.7666 27.3087 36.6383 27.4957C36.5583 27.6104 36.5017 27.7398 36.4718 27.8764C36.4419 28.013 36.4392 28.1542 36.4638 28.2919C36.4763 28.3599 36.4952 28.4265 36.5203 28.4909C36.5626 28.5963 36.6215 28.6942 36.6948 28.7809C36.7553 28.854 36.8256 28.9185 36.9037 28.9725C36.9412 28.9992 36.9806 29.023 37.0216 29.0438C37.1238 29.1018 37.2352 29.1417 37.3509 29.1618C37.4041 29.1654 37.4575 29.1654 37.5106 29.1618C37.5741 29.1621 37.6375 29.1564 37.6998 29.1446C37.9067 29.1078 38.098 29.0104 38.2495 28.8648C38.401 28.7192 38.5059 28.532 38.5509 28.3267C38.5959 28.1215 38.579 27.9075 38.5023 27.7119C38.4256 27.5163 38.2926 27.3478 38.12 27.2279L38.1176 27.2328ZM37.7785 28.2894C37.7321 28.3565 37.6617 28.4031 37.5819 28.4197H37.5672C37.4813 28.4349 37.3929 28.4154 37.3214 28.3656C37.2866 28.3413 37.257 28.3103 37.2342 28.2744C37.2114 28.2386 37.196 28.1986 37.1887 28.1567C37.1801 28.1144 37.1803 28.0708 37.1892 28.0285C37.198 27.9863 37.2155 27.9463 37.2403 27.911C37.2899 27.84 37.3656 27.7916 37.4509 27.7764C37.5361 27.7612 37.6239 27.7804 37.6949 27.8299C37.7097 27.8393 37.723 27.8509 37.7342 27.8643C37.7914 27.918 37.8274 27.9906 37.8355 28.0686C37.8436 28.1467 37.8234 28.225 37.7785 28.2894Z" fill="white"/>
<path d="M38.405 29.948C38.3591 29.6835 38.2141 29.4465 37.9995 29.2854C37.7849 29.1242 37.5169 29.0509 37.2501 29.0805C37.2248 29.0781 37.1993 29.0781 37.1739 29.0805C37.0363 29.1042 36.9048 29.155 36.787 29.2301C36.6693 29.3052 36.5678 29.4031 36.4884 29.5179C36.3569 29.7067 36.2901 29.933 36.2981 30.163C36.306 30.3929 36.3883 30.614 36.5326 30.7933C36.5972 30.8705 36.6715 30.9391 36.7537 30.9972C36.9307 31.1218 37.1418 31.1887 37.3582 31.1889C37.4217 31.1881 37.4849 31.1823 37.5474 31.1717C37.6851 31.1471 37.8165 31.0956 37.9341 31.0201C38.0518 30.9447 38.1533 30.8467 38.233 30.7318C38.3119 30.6189 38.3676 30.4915 38.3971 30.357C38.4267 30.2225 38.4293 30.0835 38.405 29.948ZM37.6285 30.3215C37.578 30.3919 37.5023 30.4402 37.4172 30.4566C37.3314 30.4718 37.243 30.4524 37.1715 30.4026C37.1367 30.3782 37.107 30.3472 37.0843 30.3114C37.0615 30.2755 37.046 30.2355 37.0388 30.1937C37.0302 30.1514 37.0303 30.1078 37.0392 30.0655C37.0481 30.0232 37.0655 29.9832 37.0904 29.948C37.1149 29.9125 37.1462 29.8823 37.1825 29.8591C37.2187 29.8359 37.2593 29.8202 37.3017 29.8128C37.3205 29.8103 37.3395 29.8103 37.3582 29.8128C37.4342 29.8137 37.5075 29.8409 37.5657 29.8897C37.624 29.9386 37.6635 30.006 37.6777 30.0807C37.6789 30.1003 37.6789 30.12 37.6777 30.1396C37.6795 30.2038 37.6624 30.267 37.6285 30.3215Z" fill="white"/>
<path d="M36.3212 27.7954C36.1738 27.6924 36.0024 27.6289 35.8235 27.6108C35.6446 27.5927 35.464 27.6207 35.299 27.6922C35.2735 27.7007 35.2489 27.7114 35.2252 27.7241C35.0721 27.8036 34.9405 27.9191 34.8419 28.0608C34.7419 28.2071 34.6796 28.3758 34.6603 28.5519C34.641 28.728 34.6654 28.9062 34.7313 29.0707C34.7397 29.0927 34.7495 29.114 34.7608 29.1346C34.8392 29.2975 34.9586 29.4372 35.1073 29.54C35.2855 29.6638 35.4973 29.7298 35.7142 29.7293C35.797 29.7293 35.8795 29.7194 35.96 29.6998C36.2128 29.6387 36.4347 29.4876 36.5841 29.2747C36.6591 29.1669 36.7133 29.046 36.7439 28.9184C36.7956 28.7104 36.7829 28.4916 36.7074 28.291C36.6319 28.0905 36.4972 27.9176 36.3212 27.7954ZM35.5299 28.9331C35.4946 28.9091 35.4644 28.8782 35.4412 28.8424C35.418 28.8065 35.4022 28.7663 35.3948 28.7242C35.387 28.6799 35.3885 28.6345 35.3992 28.5908C35.4099 28.5472 35.4295 28.5062 35.4569 28.4705C35.4843 28.4349 35.5188 28.4053 35.5582 28.3836C35.5976 28.362 35.6411 28.3488 35.6859 28.3449C35.7307 28.3409 35.7758 28.3463 35.8184 28.3608C35.861 28.3752 35.9001 28.3984 35.9332 28.4287C35.9664 28.4591 35.9929 28.496 36.011 28.5371C36.0292 28.5783 36.0386 28.6227 36.0386 28.6677C36.0392 28.7335 36.0195 28.7979 35.9821 28.852C35.9578 28.8871 35.9268 28.917 35.8909 28.94C35.855 28.9631 35.8148 28.9788 35.7728 28.9864C35.7308 28.9939 35.6878 28.9931 35.6461 28.9839C35.6044 28.9748 35.5649 28.9575 35.5299 28.9331Z" fill="white"/>
<path d="M27.3326 14.6219L27.2048 14.6538L27.0868 14.6809C26.6732 14.7833 26.2514 14.8491 25.8262 14.8775C24.6885 14.9601 23.547 14.781 22.4892 14.3541C21.3876 13.9063 20.41 13.2 19.6388 12.2948C19.565 12.2113 19.4987 12.1294 19.4397 12.0491C19.2502 11.8156 19.077 11.5692 18.9212 11.3119L18.8917 11.2628L18.8303 11.1596L18.7394 11.0048L18.4937 11.0859L18.1349 11.2087L14.0607 12.6118L13.7044 12.7347L13.353 12.8551L12.9967 12.978L9.58352 14.155L10.4632 20.3154L10.4804 20.4334L10.537 20.8364L11.0063 20.8143H11.1636L12.8345 20.603L9.95949 27.0632L9.92754 27.1246L9.46803 28.0092L9.45329 28.0387L9.42134 28.0977L9.37219 28.1935L9.12646 28.685L9.32796 28.8128C9.50735 28.7882 9.68673 28.7661 9.86857 28.7489C10.0946 28.7268 10.3207 28.7096 10.5492 28.6997L10.0946 28.4221L10.2396 28.1419L10.3281 27.9724L10.4632 27.7266L10.4903 27.675L11.021 26.6528V26.6356L14.0804 19.8019L11.9229 20.0476H11.7214L11.1734 20.0697L11.1365 19.8043L11.1095 19.6225L10.4018 14.6637L13.0704 13.7446L13.7929 13.4989L18.2946 11.9484L18.4175 11.9066C18.5084 12.0467 18.6141 12.199 18.7369 12.3612C18.8598 12.5234 19.0097 12.6978 19.167 12.8846C19.2874 13.0222 19.4127 13.1598 19.5626 13.2999C20.3203 14.0471 21.218 14.6375 22.2042 15.0372C23.7355 15.6533 25.4159 15.7988 27.0303 15.4549L31.0603 21.178L28.1508 26.294L25.583 23.9744L22.2705 33.0934L22.1157 33.5234L22.0101 33.8306L21.8749 33.7888C22.0387 33.9936 22.2025 34.2024 22.3664 34.4154L22.5163 34.6292L22.6588 34.2336L22.821 33.7888L25.9024 25.2694L28.34 27.4637L31.9203 21.1362L27.3326 14.6219Z" fill="white"/>
<path d="M18.719 11.1094L18.435 11.7897L27.036 15.3805L27.32 14.7002L18.719 11.1094Z" fill="white"/>
<path d="M36.3163 15.777H36.2205C35.0505 15.8139 33.9187 16.2017 32.9719 16.8901C32.3214 17.365 31.7787 17.9721 31.3796 18.6717C31.3108 18.7896 31.2494 18.9174 31.1953 19.0182C31.1413 19.1189 31.0675 19.2958 31.0184 19.4212L30.8685 19.7996L30.8439 19.8635H30.9275L31.2617 19.9052H31.3157C31.5155 19.9297 31.7165 19.942 31.9178 19.9421C32.7171 19.9463 33.5046 19.7494 34.208 19.3696C35.3516 18.7214 36.1938 17.6487 36.5522 16.3839C36.567 16.3299 36.5793 16.2807 36.5891 16.2414L36.7021 15.7745L36.3163 15.777ZM33.859 18.7405C33.2642 19.0643 32.5975 19.2333 31.9202 19.2319C32.2707 18.5466 32.7754 17.9519 33.3946 17.4946C34.0751 16.9994 34.868 16.6811 35.702 16.5682C35.3638 17.4874 34.7108 18.257 33.859 18.7405Z" fill="white"/>
<path d="M36.2205 5.11962C35.0505 5.15649 33.9187 5.54433 32.9719 6.23277C32.1277 6.85344 31.4677 7.69172 31.0626 8.65812C31.0559 8.67075 31.0501 8.6839 31.0454 8.69744C31.0454 8.71955 31.0258 8.73921 31.0184 8.76133L30.8439 9.20364L31.3157 9.26262L31.5197 9.28227C31.6032 9.28227 31.6942 9.28227 31.79 9.29702H31.9178C32.2069 9.29812 32.4955 9.27345 32.7803 9.2233C33.2815 9.13889 33.7654 8.97286 34.2129 8.73184C34.8025 8.39371 35.3172 7.93921 35.7257 7.39597C36.1342 6.85272 36.4279 6.23207 36.5891 5.57176L36.7021 5.10242L36.2205 5.11962ZM33.859 8.08066C33.3101 8.37788 32.699 8.54201 32.075 8.55983C32.021 8.55983 31.9694 8.55983 31.9202 8.55983C31.9374 8.52788 31.9546 8.49594 31.9743 8.464C32.328 7.81768 32.8217 7.25854 33.4192 6.82744C34.0995 6.33188 34.8925 6.0135 35.7266 5.90104C35.3837 6.8269 34.7214 7.59985 33.859 8.08066Z" fill="white"/>
<path d="M29.6768 9.56467C29.5273 9.34962 29.3631 9.14518 29.1853 8.95281C28.5746 8.28867 27.8173 7.77624 26.9737 7.45632C25.9539 7.07248 24.8458 6.98724 23.7793 7.21059L23.3124 7.30396L23.5212 7.73153C23.9633 8.6347 24.674 9.37891 25.5559 9.86201C26.2421 10.226 27.0079 10.4143 27.7847 10.41C28.37 10.4108 28.9515 10.3137 29.5048 10.1225L29.5514 10.1053L29.9594 9.9603L29.6768 9.56467ZM25.9073 9.21082C25.3099 8.88836 24.8029 8.42113 24.4329 7.85194C25.2024 7.77304 25.9797 7.87399 26.7034 8.14682C27.4936 8.44321 28.1972 8.93227 28.7504 9.56959C27.7901 9.79156 26.7823 9.66437 25.9073 9.21082Z" fill="white"/>
<path d="M28.7625 20.4455C28.589 19.9661 28.3199 19.5269 27.9714 19.1547C27.6228 18.7826 27.2023 18.4852 26.7352 18.2807L26.2929 18.089L26.2241 18.5804C26.1067 19.3919 26.223 20.22 26.5594 20.9677C26.8958 21.7154 27.4384 22.3518 28.1236 22.8021L28.244 22.8783L28.6495 23.124L28.7895 22.6694C28.7895 22.635 28.8116 22.5957 28.8215 22.5539C29.0105 21.8607 28.99 21.1271 28.7625 20.4455ZM27.2881 20.7748C27.0506 20.2912 26.9246 19.7605 26.9195 19.2218C27.4518 19.5687 27.8544 20.0819 28.0646 20.6814C28.1986 21.0805 28.2422 21.5044 28.1924 21.9224C27.815 21.6063 27.5072 21.2156 27.2881 20.7748Z" fill="white"/>
<path d="M29.8857 1.81928L29.6547 1.39417L29.3057 1.72836C28.6745 2.33439 28.2396 3.11594 28.0574 3.97187C28.0402 4.0505 28.0279 4.12668 28.0156 4.20285C27.937 4.73109 27.957 5.26932 28.0746 5.79026C28.1176 5.9822 28.1734 6.17102 28.2417 6.35544L28.4088 6.80267L28.7971 6.52991C28.8585 6.48568 28.9298 6.43408 29.0059 6.37264L29.0502 6.33333C29.5489 5.92152 29.9268 5.3823 30.1437 4.77294C30.3028 4.28879 30.362 3.77735 30.3177 3.26964C30.2733 2.76193 30.1264 2.2685 29.8857 1.81928ZM29.4483 4.5223C29.3067 4.91706 29.0793 5.27545 28.7823 5.57157C28.677 5.06884 28.682 4.54926 28.797 4.04865C28.9119 3.54805 29.1341 3.07835 29.4483 2.67196C29.6522 3.27357 29.6522 3.9256 29.4483 4.52722V4.5223Z" fill="white"/>
<path d="M30.8171 15.0741L30.4559 14.4328C30.4829 14.418 33.2105 12.865 34.3458 10.9926L34.9748 11.3734C33.7413 13.413 30.935 15.0078 30.8171 15.0741Z" fill="white"/>
<path d="M36.0928 10.8352C36.0692 10.6976 36.0184 10.566 35.9433 10.4483C35.8682 10.3306 35.7703 10.229 35.6554 10.1496C35.4243 9.99054 35.1398 9.92917 34.8636 9.97887C34.5875 10.0286 34.3422 10.1853 34.1811 10.415C34.134 10.4822 34.0953 10.5548 34.0656 10.6313C33.9662 10.8797 33.9662 11.1569 34.0656 11.4053C34.1389 11.6045 34.2719 11.7761 34.4465 11.8968C34.484 11.9234 34.5234 11.9472 34.5644 11.968C34.716 12.0476 34.8847 12.089 35.0559 12.0884H35.1591L35.2451 12.0761C35.3827 12.0516 35.5141 12.0001 35.6317 11.9246C35.7494 11.8491 35.851 11.7511 35.9307 11.6363C36.01 11.5205 36.0653 11.3899 36.0932 11.2522C36.121 11.1146 36.1209 10.9728 36.0928 10.8352ZM35.3163 11.2087C35.2923 11.2438 35.2614 11.2737 35.2255 11.2965C35.1896 11.3193 35.1494 11.3346 35.1075 11.3414C35.0632 11.3492 35.0178 11.3477 34.9741 11.337C34.9304 11.3263 34.8894 11.3067 34.8538 11.2793C34.8181 11.2519 34.7885 11.2174 34.7669 11.178C34.7452 11.1386 34.732 11.0951 34.7281 11.0503C34.7242 11.0055 34.7296 10.9604 34.744 10.9178C34.7585 10.8752 34.7816 10.8361 34.812 10.803C34.8423 10.7698 34.8792 10.7433 34.9204 10.7252C34.9615 10.707 35.006 10.6976 35.051 10.6976C35.1179 10.6967 35.1834 10.7174 35.2377 10.7566C35.2728 10.7806 35.3026 10.8115 35.3255 10.8474C35.3483 10.8833 35.3636 10.9235 35.3704 10.9654C35.3852 11.0505 35.3658 11.1379 35.3163 11.2087Z" fill="white"/>
<path d="M35.584 12.0049C35.5551 11.9846 35.5247 11.9665 35.493 11.9509C35.3539 11.8729 35.1989 11.8276 35.0397 11.8182C34.8806 11.8089 34.7213 11.8357 34.574 11.8968C34.384 11.972 34.2206 12.102 34.1047 12.2703C33.9449 12.5012 33.8832 12.786 33.9329 13.0623C33.9827 13.3386 34.1398 13.584 34.3701 13.7447C34.5473 13.8685 34.7584 13.9346 34.9746 13.9339C35.038 13.9343 35.1014 13.9285 35.1638 13.9167C35.3446 13.8843 35.5139 13.8056 35.6552 13.6882C35.727 13.627 35.7906 13.5568 35.8444 13.4793C35.975 13.2935 36.0407 13.0698 36.0312 12.8429C36.0272 12.678 35.9847 12.5163 35.907 12.3708C35.8294 12.2253 35.7187 12.1 35.584 12.0049ZM35.2424 13.064C35.2184 13.0991 35.1875 13.129 35.1516 13.1518C35.1157 13.1746 35.0755 13.1899 35.0335 13.1967C34.9912 13.2048 34.9477 13.2043 34.9055 13.1955C34.8633 13.1866 34.8233 13.1695 34.7878 13.1451C34.7176 13.0978 34.6676 13.0259 34.6477 12.9436C34.6401 12.9011 34.6409 12.8575 34.6502 12.8154C34.6595 12.7732 34.677 12.7333 34.7018 12.6979C34.732 12.655 34.7721 12.6201 34.8188 12.5961C34.8654 12.5722 34.9172 12.5599 34.9696 12.5603H34.9967C35.0532 12.5628 35.1078 12.5816 35.1539 12.6143C35.2151 12.6569 35.2597 12.7193 35.2803 12.7909C35.3008 12.8625 35.2962 12.939 35.267 13.0075C35.2616 13.0275 35.2533 13.0465 35.2424 13.064Z" fill="white"/>
<path d="M34.068 11.1596C34.0603 11.1136 34.0488 11.0684 34.0336 11.0244C33.9604 10.8058 33.8181 10.6169 33.6281 10.4863C33.5916 10.4601 33.553 10.4371 33.5126 10.4175C33.3054 10.3055 33.0659 10.2682 32.8344 10.3118C32.5712 10.3561 32.3343 10.4979 32.1709 10.7091C32.0076 10.9202 31.9298 11.1852 31.953 11.4511C31.9763 11.717 32.0988 11.9644 32.2963 12.144C32.4938 12.3236 32.7518 12.4222 33.0187 12.4202C33.0822 12.4207 33.1456 12.4149 33.2079 12.403C33.2289 12.4004 33.2495 12.3954 33.2693 12.3882C33.5237 12.3292 33.7465 12.1765 33.8935 11.9607C33.9695 11.851 34.0252 11.7287 34.0581 11.5994C34.091 11.455 34.0943 11.3054 34.068 11.1596ZM33.085 11.6682C32.9992 11.6835 32.9108 11.664 32.8393 11.6142C32.8045 11.5897 32.7748 11.5585 32.7519 11.5225C32.7291 11.4865 32.7136 11.4464 32.7063 11.4044C32.699 11.3624 32.7 11.3194 32.7094 11.2778C32.7187 11.2362 32.7361 11.1969 32.7607 11.162C32.7847 11.1267 32.8155 11.0965 32.8514 11.0733C32.8873 11.0501 32.9275 11.0343 32.9696 11.0269H33.0261C33.0929 11.0268 33.1581 11.0474 33.2128 11.0859C33.2826 11.1358 33.3301 11.211 33.3452 11.2955C33.3604 11.3799 33.342 11.4669 33.2939 11.538C33.2684 11.5731 33.2361 11.6026 33.199 11.625C33.1618 11.6474 33.1206 11.6621 33.0777 11.6682H33.085Z" fill="white"/>
<path d="M24.1945 33.6782C24.1216 33.6782 24.0504 33.6565 23.9899 33.616C23.9293 33.5755 23.8821 33.5179 23.8543 33.4506C23.8264 33.3833 23.8191 33.3093 23.8333 33.2378C23.8475 33.1663 23.8825 33.1007 23.934 33.0492C25.9957 30.9949 30.7776 25.321 30.6867 17.0129C30.6277 11.6068 28.0918 5.38494 26.3078 2.70157C26.2537 2.62011 26.2342 2.52049 26.2535 2.42464C26.2729 2.32879 26.3295 2.24455 26.411 2.19045C26.4924 2.13636 26.5921 2.11685 26.6879 2.1362C26.7838 2.15556 26.868 2.2122 26.9221 2.29366C28.7552 5.0532 31.3649 11.4397 31.4239 17.0055C31.5172 25.606 26.5805 31.4519 24.455 33.5701C24.421 33.6047 24.3805 33.6321 24.3357 33.6506C24.291 33.6692 24.243 33.6786 24.1945 33.6782Z" fill="white"/>
<path d="M28.9371 26.7856L28.2245 26.5963C28.5275 25.2967 28.48 23.9399 28.0869 22.6647L28.7847 22.4189C29.2295 23.8339 29.2821 25.343 28.9371 26.7856Z" fill="white"/>
<path d="M30.1166 12.3441C29.9568 9.77127 31.0602 8.68023 31.0995 8.63354L31.6131 9.16186C31.6131 9.16186 30.7161 10.0932 30.8538 12.2998L30.1166 12.3441Z" fill="white"/>
<path d="M32.6183 32.2479C32.9132 32.2799 33.1515 32.3118 33.2719 32.329C33.0483 32.3045 32.8272 32.2823 32.606 32.2676C32.316 32.2455 32.031 32.2332 31.7484 32.2283C31.3086 32.2283 30.8761 32.2283 30.4559 32.2504C30.8901 32.1578 31.3364 32.1346 31.7779 32.1816C32.0703 32.1963 32.3652 32.2234 32.6183 32.2479Z" fill="white"/>
</g>
<path d="M60.7423 34.2469V11.6251H51.9923V9.34869H72.1243V11.6251H63.3744V34.2469H60.7423ZM94.5405 9.34869H97.1371V34.2469H94.5405V9.34869ZM78.9613 34.2469H76.3292V9.34869H78.9613V34.2469ZM94.7895 22.7582H78.6768V20.4462H94.7895V22.7582ZM105.264 34.2469V9.34869H114.583C116.693 9.34869 118.507 9.69253 120.025 10.3802C121.542 11.0441 122.704 12.0164 123.511 13.2968C124.341 14.5536 124.756 16.0831 124.756 17.8852C124.756 19.64 124.341 21.1576 123.511 22.4381C122.704 23.6948 121.542 24.667 120.025 25.3547C118.507 26.0187 116.693 26.3506 114.583 26.3506H106.722L107.896 25.1413V34.2469H105.264ZM122.266 34.2469L115.863 25.2124H118.709L125.147 34.2469H122.266ZM107.896 25.3547L106.722 24.1098H114.512C117.001 24.1098 118.887 23.5644 120.167 22.4736C121.471 21.3829 122.123 19.8534 122.123 17.8852C122.123 15.8934 121.471 14.3521 120.167 13.2613C118.887 12.1705 117.001 11.6251 114.512 11.6251H106.722L107.896 10.3802V25.3547ZM130.968 34.2469V9.34869H133.6V34.2469H130.968ZM144.049 21.4066H157.209V23.683H144.049V21.4066ZM144.333 34.2469H141.701V9.34869H158.774V11.6251H144.333V34.2469ZM169.221 34.2469V11.6251H160.471V9.34869H180.603V11.6251H171.853V34.2469H169.221ZM195.344 34.4604C193.471 34.4604 191.728 34.1521 190.116 33.5356C188.527 32.8953 187.14 32.0061 185.954 30.8679C184.792 29.706 183.879 28.3662 183.215 26.8486C182.575 25.3073 182.255 23.6237 182.255 21.7978C182.255 19.9719 182.575 18.3002 183.215 16.7826C183.879 15.2413 184.792 13.9015 185.954 12.7633C187.14 11.6014 188.527 10.7122 190.116 10.0956C191.704 9.4554 193.447 9.13528 195.344 9.13528C197.218 9.13528 198.949 9.4554 200.537 10.0956C202.126 10.7122 203.501 11.5895 204.663 12.7277C205.849 13.8659 206.762 15.2057 207.402 16.747C208.066 18.2884 208.398 19.9719 208.398 21.7978C208.398 23.6237 208.066 25.3073 207.402 26.8486C206.762 28.3899 205.849 29.7297 204.663 30.8679C203.501 32.0061 202.126 32.8953 200.537 33.5356C198.949 34.1521 197.218 34.4604 195.344 34.4604ZM195.344 32.1128C196.838 32.1128 198.213 31.8638 199.47 31.3659C200.751 30.8442 201.853 30.121 202.778 29.1962C203.727 28.2477 204.462 27.1569 204.983 25.9238C205.505 24.667 205.766 23.2917 205.766 21.7978C205.766 20.3039 205.505 18.9405 204.983 17.7074C204.462 16.4506 203.727 15.3598 202.778 14.4351C201.853 13.4865 200.751 12.7633 199.47 12.2653C198.213 11.7437 196.838 11.4828 195.344 11.4828C193.85 11.4828 192.463 11.7437 191.183 12.2653C189.902 12.7633 188.788 13.4865 187.839 14.4351C186.914 15.3598 186.179 16.4506 185.634 17.7074C185.112 18.9405 184.851 20.3039 184.851 21.7978C184.851 23.268 185.112 24.6315 185.634 25.8882C186.179 27.145 186.914 28.2477 187.839 29.1962C188.788 30.121 189.902 30.8442 191.183 31.3659C192.463 31.8638 193.85 32.1128 195.344 32.1128ZM214.298 34.2469V9.34869H223.617C225.727 9.34869 227.541 9.69253 229.059 10.3802C230.577 11.0441 231.738 12.0164 232.545 13.2968C233.375 14.5536 233.79 16.0831 233.79 17.8852C233.79 19.64 233.375 21.1576 232.545 22.4381C231.738 23.6948 230.577 24.667 229.059 25.3547C227.541 26.0424 225.727 26.3862 223.617 26.3862H215.756L216.93 25.1413V34.2469H214.298ZM216.93 25.3547L215.756 24.0742H223.546C226.036 24.0742 227.921 23.5407 229.201 22.4736C230.505 21.3829 231.157 19.8534 231.157 17.8852C231.157 15.8934 230.505 14.3521 229.201 13.2613C227.921 12.1705 226.036 11.6251 223.546 11.6251H215.756L216.93 10.3802V25.3547ZM239.481 34.2469V9.34869H242.113V34.2469H239.481ZM246.23 34.2469L257.612 9.34869H260.209L271.591 34.2469H268.817L258.359 10.8782H259.426L248.969 34.2469H246.23ZM250.712 27.5956L251.495 25.4614H265.971L266.754 27.5956H250.712Z" fill="white"/>
<defs>
<clipPath id="clip0_240_1914">
<rect width="41.2702" height="40.7051" fill="white" transform="translate(0 1.39417)"/>
</clipPath>
</defs>
</svg>
