<svg width="272" height="44" viewBox="0 0 272 44" fill="none" xmlns="http://www.w3.org/2000/svg">
<g clip-path="url(#clip0_71_471)">
<path d="M34.7511 33.3244C34.6809 33.3096 34.608 33.3159 34.5415 33.3426C34.475 33.3692 34.4179 33.4151 34.3775 33.4743C33.945 34.0887 33.4756 34.6762 32.972 35.2338C32.7885 35.4435 32.5968 35.6474 32.397 35.8456C30.4565 37.8161 28.0997 39.3274 25.4993 40.2688C25.2536 40.3548 25.0275 40.4334 24.7892 40.5145C23.2948 40.9852 21.7465 41.2635 20.1818 41.3426C19.936 41.3426 19.6903 41.3623 19.4446 41.3647H19.2357C16.7042 41.3667 14.1993 40.8471 11.8775 39.8384C9.55558 38.8297 7.46642 37.3534 5.74024 35.5016C5.57069 35.3222 5.40605 35.1404 5.24879 34.9536C4.33115 33.894 3.53724 32.7332 2.88241 31.4938C2.76446 31.2726 2.65143 31.049 2.5433 30.8229C2.13606 29.9783 1.79511 29.1034 1.52353 28.2059C1.43998 27.9331 1.3638 27.6555 1.295 27.3778C0.923914 25.9027 0.736558 24.3873 0.737194 22.8662C0.737194 22.6524 0.737194 22.4386 0.737194 22.2273C0.737194 21.9545 0.759309 21.6818 0.781425 21.4139C1.0166 18.472 1.95181 15.629 3.50903 13.122C5.06626 10.6149 7.20036 8.51656 9.73335 7.00191C9.96433 6.86185 10.2002 6.7267 10.4386 6.59892C11.9161 5.79759 13.4972 5.20388 15.1369 4.83458C15.4171 4.77069 15.6972 4.71417 15.9798 4.66503C19.5178 4.03376 23.1631 4.44705 26.47 5.85436C26.538 5.88369 26.6134 5.89155 26.686 5.87687C26.7586 5.8622 26.825 5.8257 26.8763 5.77226C26.9276 5.71881 26.9614 5.65097 26.9731 5.57782C26.9848 5.50466 26.9739 5.42968 26.9418 5.3629C26.9047 5.28289 26.8389 5.21974 26.7575 5.18597C24.3812 4.1692 21.8228 3.64666 19.2382 3.65016C17.9441 3.64948 16.6533 3.77873 15.3851 4.03596C15.0976 4.09739 14.8126 4.16128 14.53 4.235C12.8609 4.65564 11.2564 5.30039 9.76038 6.15169C9.51465 6.29176 9.26892 6.43428 9.03793 6.58663C6.54797 8.14323 4.44734 10.2491 2.89695 12.7429C1.34656 15.2368 0.387546 18.0524 0.0933828 20.9741C0.0638953 21.2518 0.044237 21.5442 0.0294932 21.8169C5.68655e-06 22.1634 5.68656e-06 22.5271 5.68656e-06 22.8662C-0.00109347 24.2931 0.157154 25.7157 0.471806 27.1075C0.535696 27.395 0.606957 27.68 0.685591 27.9602C1.00046 29.1079 1.42251 30.2235 1.94618 31.2923C2.05676 31.5183 2.17225 31.7444 2.29266 31.9656C2.96232 33.2062 3.76484 34.3705 4.68606 35.4377C4.84988 35.6228 5.0137 35.8047 5.17752 35.9832C6.97318 37.9147 9.1481 39.4548 11.5662 40.5072C13.9843 41.5596 16.5936 42.1016 19.2308 42.0994H19.4765C19.7255 42.0994 19.9713 42.0921 20.2137 42.0773C21.7923 41.9981 23.3549 41.7224 24.8654 41.2566C25.1111 41.1853 25.3568 41.1067 25.5853 41.0109C29.3814 39.6722 32.6641 37.1807 34.9747 33.8847C35.0097 33.8353 35.032 33.7779 35.0397 33.7178C35.0473 33.6577 35.0399 33.5966 35.0183 33.54C34.9967 33.4834 34.9614 33.433 34.9157 33.3932C34.8699 33.3535 34.8151 33.3256 34.756 33.3122L34.7511 33.3244Z" fill="white"/>
<path d="M10.2765 26.9353L9.95954 27.0606C7.18153 28.0998 4.14163 28.211 1.29512 27.3776C1.01744 27.2965 0.742226 27.2056 0.471924 27.1073C0.535813 27.3948 0.607075 27.6798 0.685708 27.96C0.960925 28.0509 1.24106 28.132 1.52365 28.2057C2.71112 28.5151 3.93332 28.6712 5.16044 28.6701C5.78733 28.6698 6.41357 28.6296 7.03536 28.5497C7.81424 28.4494 8.58352 28.285 9.33538 28.0583L9.47545 28.014C9.57538 27.9845 9.67613 27.9526 9.7777 27.9182C10.0234 27.8371 10.2692 27.7486 10.4928 27.6553L11.0235 26.633V26.6158C10.7803 26.7264 10.5296 26.8345 10.2765 26.9353ZM19.4889 12.3979C19.4889 12.3684 19.4889 12.3414 19.4889 12.3119C19.4889 12.2824 19.4889 12.2505 19.4766 12.221C19.4643 12.1915 19.4619 12.108 19.4521 12.0514C19.4275 11.8893 19.4005 11.7295 19.371 11.56C19.371 11.4912 19.3439 11.4199 19.3292 11.3511C18.8213 8.86254 17.6631 6.55296 15.9725 4.65745C15.7784 4.43875 15.5794 4.22497 15.373 4.01855C15.0855 4.07999 14.8004 4.14388 14.5178 4.2176C14.7291 4.41418 14.9331 4.61568 15.1297 4.827C16.7856 6.57858 17.9487 8.737 18.5011 11.0833C18.5183 11.1496 18.533 11.216 18.5478 11.2823C18.5625 11.3487 18.5724 11.3855 18.5797 11.4396C18.5809 11.4469 18.5809 11.4544 18.5797 11.4617C18.6092 11.6018 18.6362 11.7467 18.6608 11.8893C18.6756 11.9654 18.6878 12.0441 18.7001 12.1203C18.7124 12.1964 18.7222 12.2701 18.7321 12.3463C18.8599 12.5183 19.0048 12.6977 19.1695 12.8845C19.2899 13.0221 19.4152 13.1597 19.5651 13.2998C19.5528 12.9975 19.5258 12.6977 19.4889 12.3979Z" fill="white"/>
<path d="M14.0604 12.6117C14.0334 12.4077 13.9941 12.2062 13.9499 12.0072C13.4659 9.84222 12.2196 7.92346 10.4384 6.60115C10.2172 6.43651 9.99117 6.2817 9.75527 6.13672C9.50954 6.27678 9.26381 6.41931 9.03282 6.57166C9.27363 6.70353 9.50739 6.84789 9.73315 7.00414C11.5096 8.21946 12.7585 10.0638 13.2274 12.1645C13.279 12.393 13.3208 12.6289 13.3527 12.8648C13.3527 12.8648 13.3527 12.8795 13.3527 12.8869L14.0776 12.7419C14.0747 12.6982 14.069 12.6547 14.0604 12.6117ZM11.7211 20.045L11.1731 20.0696L11.1363 19.8042C11.0281 19.9197 10.9176 20.0327 10.8045 20.1408C10.6915 20.249 10.5907 20.3399 10.4802 20.4357C9.16203 21.5747 7.5251 22.28 5.79196 22.4559C4.05882 22.6317 2.31358 22.2696 0.793515 21.4186C0.552501 21.2826 0.318741 21.1342 0.0931865 20.9739C0.063699 21.2515 0.0440406 21.544 0.0292969 21.8167C0.275026 21.9641 0.503555 22.1018 0.749284 22.2271C2.4228 23.0807 4.31735 23.4022 6.17879 23.1483C8.04022 22.8944 9.7795 22.0774 11.1633 20.8068C11.2272 20.7511 11.2911 20.6921 11.355 20.6298C11.5515 20.4382 11.7408 20.2391 11.9226 20.0303L11.7211 20.045Z" fill="white"/>
<path d="M25.4994 40.2687C25.4356 39.8362 25.3545 39.4111 25.2537 38.9933C25.2021 38.7697 25.1407 38.5461 25.0768 38.3274C24.6445 36.8619 23.9809 35.4749 23.111 34.2188C23.0741 34.1623 23.0372 34.1082 22.9979 34.0542L22.7989 33.779L22.6711 33.6119C22.6121 33.5332 22.5532 33.4571 22.4917 33.3809C22.4303 33.3047 22.3394 33.1917 22.2607 33.1007C20.9069 31.4845 19.2151 30.1848 17.3046 29.2932C15.3941 28.4016 13.3112 27.9399 11.2029 27.9404C10.994 27.9404 10.7876 27.9404 10.5812 27.9552H10.3232C10.1192 27.9675 9.92021 27.9822 9.72117 28.0019L9.45332 28.0338L9.328 28.0486C8.54907 28.1486 7.77977 28.313 7.02797 28.54C5.4094 29.0288 3.88966 29.7991 2.5385 30.8155C2.337 30.9654 2.13796 31.1226 1.94629 31.2848C2.05687 31.5109 2.17236 31.7369 2.29277 31.9581C2.48198 31.7935 2.67856 31.6362 2.8776 31.4863C4.75419 30.0396 6.97594 29.1079 9.32308 28.7833C9.50247 28.7587 9.68185 28.7366 9.86369 28.7194C10.0898 28.6973 10.3158 28.6801 10.5444 28.6702C10.7729 28.6604 10.9621 28.653 11.171 28.653H11.2029C13.1617 28.6522 15.0978 29.0719 16.8804 29.8837C18.6631 30.6955 20.2506 31.8806 21.5358 33.3588C21.6505 33.4915 21.7635 33.6266 21.8749 33.7642C22.0388 33.969 22.2026 34.1779 22.3664 34.3908L22.5163 34.6046C23.7294 36.3643 24.5122 38.3844 24.8016 40.5021C24.836 40.7478 24.863 40.9936 24.8827 41.2393C25.1284 41.168 25.3741 41.0894 25.6027 40.9936C25.556 40.765 25.5363 40.5169 25.4994 40.2687Z" fill="white"/>
<path d="M20.1817 41.3374C20.0328 39.6779 19.4373 38.0897 18.4583 36.7415C17.4793 35.3933 16.1534 34.3354 14.6215 33.6802C13.0896 33.025 11.4088 32.7969 9.75766 33.0202C8.10653 33.2435 6.5467 33.9099 5.24384 34.9484C5.05217 35.1008 4.86542 35.263 4.68604 35.4399C4.84985 35.625 5.01367 35.8069 5.17749 35.9854C5.35688 35.8159 5.54363 35.6561 5.73776 35.494C6.93509 34.5495 8.36483 33.9452 9.87657 33.7446C11.3883 33.544 12.9262 33.7545 14.3284 34.354C15.7306 34.9535 16.9453 35.9198 17.8448 37.1514C18.7443 38.3829 19.2952 39.834 19.4396 41.3522C19.4642 41.5979 19.4765 41.8436 19.4789 42.0893C19.728 42.0893 19.9737 42.082 20.2161 42.0672C20.2145 41.8182 20.203 41.5749 20.1817 41.3374Z" fill="white"/>
<path d="M32.0136 26.7044L31.8834 26.24L31.4681 26.4857C30.7149 26.9359 30.1154 27.6031 29.748 28.4C29.4146 29.1324 29.2937 29.9439 29.399 30.7418C29.399 30.7418 29.399 30.7565 29.399 30.7639L29.4629 31.2357L29.9028 31.0563C29.9814 31.0243 30.0748 30.9826 30.178 30.9334C30.7607 30.6376 31.2531 30.1902 31.6032 29.6384C31.867 29.2028 32.0395 28.718 32.11 28.2136C32.1806 27.7092 32.1478 27.1957 32.0136 26.7044ZM30.9914 29.2502C30.7672 29.6067 30.4657 29.9082 30.1092 30.1323C30.115 29.6151 30.2334 29.1054 30.4562 28.6386C30.679 28.1718 31.0008 27.7591 31.3993 27.4293C31.4697 28.0663 31.3262 28.7086 30.9914 29.2551V29.2502Z" fill="white"/>
<path d="M32.9867 35.2608L32.9719 35.2337C32.6497 34.6323 32.191 34.1148 31.6327 33.7225C31.4873 33.6176 31.3345 33.5232 31.1757 33.4399C31.1093 33.4055 31.0405 33.3711 30.9742 33.3416C30.3065 33.0313 29.5704 32.8977 28.8363 32.9534L28.3621 32.9902L28.5144 33.4399C28.7222 34.0467 29.0847 34.5888 29.5661 35.0126C29.6495 35.0874 29.7373 35.1572 29.8291 35.2215C29.9474 35.3047 30.0705 35.381 30.1977 35.45C30.734 35.7317 31.3316 35.8769 31.9374 35.8726C32.091 35.8735 32.2445 35.8644 32.3969 35.8456C32.5118 35.8345 32.6258 35.8164 32.7385 35.7915L33.2103 35.6883L32.9867 35.2608ZM30.7161 34.8824C30.5567 34.8101 30.4045 34.7229 30.2615 34.6219C30.1943 34.5736 30.1295 34.5219 30.0674 34.4671C29.8118 34.2468 29.5972 33.9831 29.4334 33.6881C29.8036 33.7139 30.1674 33.7968 30.5122 33.9338C30.6228 33.9781 30.7311 34.0282 30.8366 34.0837C30.9594 34.1474 31.0777 34.2197 31.1904 34.3C31.5196 34.5264 31.8086 34.8063 32.0455 35.1281C31.5894 35.1492 31.1346 35.0651 30.7161 34.8824Z" fill="white"/>
<path d="M30.2025 30.9505C30.0337 31.1611 29.8532 31.3621 29.6619 31.5526C29.2589 31.958 28.8461 32.2897 28.679 32.4372L28.5684 32.4544L28.1458 31.9212L28.3915 31.7147C28.7479 31.4141 29.0852 31.0916 29.4014 30.749C29.4776 30.6655 29.5489 30.5795 29.6152 30.5033L30.1828 30.9481L30.2025 30.9505Z" fill="white"/>
<path d="M30.2566 34.6217C30.3995 34.7228 30.5517 34.81 30.7112 34.8822C30.5392 35.0812 30.3671 35.2704 30.1976 35.4498C27.8091 38.0005 25.5754 38.9097 25.4182 38.9711C25.3759 38.9876 25.3308 38.9959 25.2855 38.9957H25.2511C25.176 38.9892 25.1047 38.9598 25.047 38.9113C24.9892 38.8629 24.9479 38.7978 24.9285 38.7249C24.9092 38.6521 24.9128 38.575 24.9388 38.5043C24.9649 38.4336 25.0121 38.3726 25.0741 38.3298C25.0964 38.3121 25.1212 38.298 25.1478 38.288C25.1847 38.2732 27.2808 37.4132 29.571 35.0149C29.7356 34.8404 29.9027 34.6586 30.0624 34.4694C30.1245 34.5234 30.1893 34.5742 30.2566 34.6217Z" fill="white"/>
<path d="M31.6795 32.6682C31.7458 32.6728 31.8097 32.6949 31.8646 32.7322C31.9196 32.7696 31.9637 32.8208 31.9925 32.8808C32.0212 32.9407 32.0335 33.0072 32.0282 33.0735C32.0228 33.1397 32 33.2034 31.962 33.2579C31.8539 33.4177 31.7433 33.5725 31.6328 33.7224C31.4853 33.9239 31.3354 34.1204 31.1855 34.3072C31.0728 34.2269 30.9546 34.1546 30.8317 34.091C30.7262 34.0354 30.618 33.9854 30.5073 33.9411C30.6646 33.7494 30.8194 33.5479 30.9742 33.3415C31.0971 33.1768 31.2199 33.0048 31.3428 32.8304C31.3799 32.7763 31.4305 32.7329 31.4896 32.7045C31.5486 32.676 31.6141 32.6635 31.6795 32.6682Z" fill="white"/>
<path d="M32.9278 31.5477H33.0138C33.0146 31.5534 33.0146 31.5592 33.0138 31.5649L32.9843 31.6189C32.8639 31.8327 32.7386 32.0367 32.6206 32.2382L32.6083 32.2578C32.3184 32.2357 32.0333 32.2234 31.7507 32.2185L31.7802 32.1718C31.9203 31.9507 32.0603 31.7197 32.198 31.4838H32.2668C32.4855 31.5083 32.7091 31.5255 32.9278 31.5477Z" fill="white"/>
<path d="M40.2036 21.9839C39.5974 22.1899 39.015 22.4601 38.4663 22.7899C38.2111 22.9435 37.9649 23.1117 37.7291 23.2937C37.5346 23.4379 37.3476 23.5921 37.1689 23.7556C36.8933 24.0061 36.6348 24.2745 36.3948 24.5592C36.1144 24.8938 35.859 25.2486 35.6306 25.6207C35.3066 26.1376 35.0452 26.6911 34.8516 27.2696C34.8074 27.4072 34.7656 27.5423 34.7189 27.6775C34.7189 27.6947 34.7189 27.7119 34.7017 27.7291C34.5518 28.1788 34.3921 28.6088 34.225 29.0241C34.2054 29.0732 34.1857 29.1224 34.1636 29.1715C33.8933 29.8399 33.6033 30.464 33.2986 31.0489C33.0308 31.0341 32.7482 31.0268 32.4631 31.0292C33.1547 29.761 33.7194 28.4276 34.1488 27.0484C34.3433 26.4645 34.6021 25.9041 34.9204 25.3775C34.9769 25.2816 35.0384 25.1858 35.0998 25.0875C35.2934 24.7841 35.5043 24.492 35.7313 24.2127C36.02 23.8574 36.3346 23.5239 36.6725 23.215C37.0017 22.9159 37.3533 22.6423 37.7242 22.3968C37.9552 22.2419 38.196 22.097 38.4442 21.9618C38.9317 21.6983 39.4405 21.4763 39.9653 21.2983C40.0111 21.2822 40.0596 21.2753 40.1081 21.2779C40.1566 21.2805 40.2042 21.2927 40.248 21.3137C40.2918 21.3347 40.331 21.3641 40.3635 21.4002C40.3959 21.4364 40.4209 21.4786 40.4371 21.5244C40.4532 21.5702 40.4601 21.6188 40.4575 21.6673C40.4549 21.7158 40.4427 21.7633 40.4217 21.8071C40.4007 21.8509 40.3713 21.8902 40.3352 21.9226C40.299 21.9551 40.2568 21.9801 40.211 21.9962L40.2036 21.9839Z" fill="white"/>
<path d="M38.894 16.0249L38.7318 15.5703L38.3338 15.8455C37.7641 16.2472 37.27 16.7463 36.8741 17.3199C36.6082 17.7012 36.3903 18.1139 36.2254 18.5486C35.861 19.5201 35.7659 20.572 35.9502 21.5931C35.9502 21.6447 35.9698 21.6914 35.9797 21.7381L36.0755 22.205L36.5031 21.9961L36.5964 21.9494C36.9793 21.7496 37.3352 21.5019 37.6555 21.2123C37.9024 20.9916 38.124 20.7444 38.3166 20.4751C38.4335 20.3145 38.5394 20.1462 38.6335 19.9713C38.9433 19.3659 39.1262 18.7036 39.1709 18.025C39.2157 17.3464 39.1215 16.6658 38.894 16.0249ZM38.1347 19.298C38.0905 19.4037 38.0389 19.5094 37.9824 19.615C37.8602 19.8455 37.7136 20.0622 37.545 20.2613C37.278 20.5806 36.964 20.8574 36.6136 21.082C36.5348 20.3134 36.6357 19.5369 36.9085 18.8139C36.98 18.6316 37.0621 18.4535 37.1543 18.2807C37.3049 17.9883 37.4843 17.7117 37.6899 17.4551C37.8821 17.2087 38.0977 16.9816 38.3338 16.7768C38.5282 17.6177 38.4587 18.4981 38.1347 19.298Z" fill="white"/>
<path d="M40.8944 32.7959C40.2098 32.2527 39.3775 31.9282 38.5059 31.8646C37.7539 31.8093 37.0006 31.9526 36.3213 32.2799L36.1665 32.3585L35.8717 32.5158L35.7463 32.5821L35.7979 32.6387L36.0437 32.9065L36.0658 32.9311C36.5756 33.4895 37.2462 33.8758 37.9849 34.0369C38.2162 34.0839 38.4517 34.1078 38.6877 34.1081C39.4735 34.0969 40.2372 33.8466 40.8772 33.3906L41.2826 33.0933L40.8944 32.7959ZM38.1373 33.3046C37.7261 33.2168 37.3398 33.038 37.0069 32.7812C37.4927 32.6088 38.0102 32.5446 38.5233 32.593C39.0364 32.6414 39.5328 32.8012 39.9778 33.0613C39.4077 33.3426 38.7608 33.4281 38.1373 33.3046Z" fill="white"/>
<path d="M34.9131 25.412C34.8683 24.0114 35.2599 22.6315 36.0337 21.4631L36.648 21.871C35.9572 22.9115 35.6084 24.1417 35.6503 25.3899L34.9131 25.412Z" fill="white"/>
<path d="M35.2818 25.7706C35.2211 25.7702 35.1614 25.755 35.1079 25.7263C35.0544 25.6976 35.0086 25.6563 34.9747 25.6059C34.9479 25.5656 34.9293 25.5204 34.92 25.4729C34.9107 25.4253 34.9108 25.3764 34.9204 25.329C34.93 25.2815 34.9488 25.2364 34.9758 25.1962C35.0029 25.156 35.0375 25.1216 35.0779 25.0948C36.5523 24.1119 38.6483 24.5149 38.7368 24.5345C38.7841 24.5439 38.8292 24.5626 38.8693 24.5894C38.9094 24.6163 38.9438 24.6508 38.9705 24.691C38.9972 24.7312 39.0157 24.7763 39.025 24.8236C39.0342 24.871 39.034 24.9197 39.0243 24.967C39.0147 25.0156 38.9954 25.0617 38.9677 25.1026C38.94 25.1436 38.9044 25.1787 38.863 25.2057C38.8215 25.2327 38.7751 25.2512 38.7264 25.26C38.6778 25.2688 38.6278 25.2678 38.5795 25.257C38.5623 25.257 36.7046 24.8909 35.476 25.7067C35.4187 25.7461 35.3513 25.7683 35.2818 25.7706Z" fill="white"/>
<path d="M36.3384 32.2136L36.3212 32.2677L36.1247 32.9189L36.046 32.8967C35.1675 32.635 34.2681 32.4492 33.3577 32.3414H33.343H33.2717C33.0481 32.3168 32.827 32.2947 32.6058 32.28C32.3158 32.2578 32.0308 32.2456 31.7482 32.2406C31.3084 32.2406 30.8759 32.2406 30.4557 32.2628C29.8614 32.2942 29.2693 32.3565 28.6815 32.4495L28.5709 32.4667C26.5416 32.7789 24.5815 33.439 22.7766 34.4178L22.3958 33.7887C24.2598 32.7533 26.2921 32.0554 28.3989 31.7271C28.8044 31.6607 29.227 31.6067 29.662 31.5649C30.504 31.4853 31.3506 31.4656 32.1954 31.5059H32.2642C32.4854 31.5059 32.709 31.5329 32.9351 31.5551H33.0211H33.0825C33.3872 31.5845 33.6968 31.6239 34.0114 31.673H34.0409C34.0826 31.673 34.1244 31.673 34.1662 31.6951H34.2104L34.8395 31.8131H34.8837C35.3604 31.9409 35.847 32.0637 36.3384 32.2136Z" fill="white"/>
<path d="M34.0113 31.6806H34.0408C33.6157 31.9632 33.3208 32.1278 33.2839 32.1499L32.9817 31.6192L32.9448 31.5577V31.5405H33.0308H33.0923C33.3904 31.5929 33.6968 31.6396 34.0113 31.6806Z" fill="white"/>
<path d="M37.4395 28.449C37.3143 28.6563 37.1764 28.8557 37.0266 29.0461C36.3639 29.8621 35.5944 30.5853 34.7389 31.1962C34.4932 31.1594 34.0877 31.1102 33.6233 31.0758C34.2279 30.6728 34.8027 30.2269 35.3434 29.7415C35.6192 29.496 35.8809 29.2351 36.1273 28.9601C36.2624 28.8077 36.3902 28.6529 36.5057 28.4957C36.6088 28.3598 36.7047 28.2187 36.7932 28.073L37.4395 28.449Z" fill="white"/>
<path d="M38.1175 27.2328C38.055 27.1893 37.9883 27.1523 37.9184 27.1222C37.6798 27.023 37.413 27.0151 37.1689 27.1001C36.9531 27.1696 36.7665 27.3087 36.6382 27.4957C36.5582 27.6104 36.5016 27.7398 36.4717 27.8764C36.4417 28.013 36.439 28.1542 36.4637 28.2919C36.4762 28.3599 36.4951 28.4265 36.5202 28.4909C36.5625 28.5963 36.6214 28.6942 36.6947 28.7809C36.7552 28.854 36.8255 28.9185 36.9036 28.9725C36.9411 28.9992 36.9805 29.023 37.0215 29.0438C37.1236 29.1018 37.235 29.1417 37.3508 29.1618C37.404 29.1654 37.4573 29.1654 37.5105 29.1618C37.574 29.1621 37.6374 29.1564 37.6997 29.1446C37.9066 29.1078 38.0979 29.0104 38.2494 28.8648C38.4009 28.7192 38.5058 28.532 38.5508 28.3267C38.5958 28.1215 38.5789 27.9075 38.5022 27.7119C38.4255 27.5163 38.2924 27.3478 38.1199 27.2279L38.1175 27.2328ZM37.7784 28.2894C37.732 28.3565 37.6616 28.4031 37.5818 28.4197H37.567C37.4812 28.4349 37.3928 28.4154 37.3213 28.3656C37.2865 28.3413 37.2569 28.3103 37.2341 28.2744C37.2113 28.2386 37.1959 28.1986 37.1886 28.1567C37.18 28.1144 37.1802 28.0708 37.189 28.0285C37.1979 27.9863 37.2153 27.9463 37.2402 27.911C37.2898 27.84 37.3655 27.7916 37.4507 27.7764C37.536 27.7612 37.6237 27.7804 37.6948 27.8299C37.7096 27.8393 37.7228 27.8509 37.7341 27.8643C37.7913 27.918 37.8272 27.9906 37.8354 28.0686C37.8435 28.1467 37.8233 28.225 37.7784 28.2894Z" fill="white"/>
<path d="M38.405 29.948C38.3591 29.6835 38.214 29.4465 37.9994 29.2854C37.7848 29.1242 37.5168 29.0509 37.2501 29.0805C37.2247 29.0781 37.1992 29.0781 37.1739 29.0805C37.0362 29.1042 36.9047 29.155 36.787 29.2301C36.6693 29.3052 36.5677 29.4031 36.4883 29.5179C36.3568 29.7067 36.29 29.933 36.298 30.163C36.306 30.3929 36.3883 30.614 36.5325 30.7933C36.5971 30.8705 36.6715 30.9391 36.7537 30.9972C36.9307 31.1218 37.1418 31.1887 37.3582 31.1889C37.4216 31.1881 37.4849 31.1823 37.5474 31.1717C37.685 31.1471 37.8164 31.0956 37.934 31.0201C38.0517 30.9447 38.1533 30.8467 38.233 30.7318C38.3118 30.6189 38.3676 30.4915 38.3971 30.357C38.4266 30.2225 38.4293 30.0835 38.405 29.948ZM37.6285 30.3215C37.5779 30.3919 37.5023 30.4402 37.4172 30.4566C37.3313 30.4718 37.2429 30.4524 37.1714 30.4026C37.1366 30.3782 37.107 30.3472 37.0842 30.3114C37.0614 30.2755 37.046 30.2355 37.0387 30.1937C37.0301 30.1514 37.0303 30.1078 37.0392 30.0655C37.048 30.0232 37.0654 29.9832 37.0903 29.948C37.1148 29.9125 37.1461 29.8823 37.1824 29.8591C37.2187 29.8359 37.2592 29.8202 37.3017 29.8128C37.3204 29.8103 37.3394 29.8103 37.3582 29.8128C37.4341 29.8137 37.5075 29.8409 37.5657 29.8897C37.6239 29.9386 37.6635 30.006 37.6776 30.0807C37.6788 30.1003 37.6788 30.12 37.6776 30.1396C37.6794 30.2038 37.6624 30.267 37.6285 30.3215Z" fill="white"/>
<path d="M36.3211 27.7954C36.1737 27.6924 36.0024 27.6289 35.8234 27.6108C35.6445 27.5927 35.4639 27.6207 35.2989 27.6922C35.2735 27.7007 35.2488 27.7114 35.2252 27.7241C35.072 27.8036 34.9404 27.9191 34.8418 28.0608C34.7419 28.2071 34.6795 28.3758 34.6602 28.5519C34.6409 28.728 34.6653 28.9062 34.7313 29.0707C34.7396 29.0927 34.7495 29.114 34.7608 29.1346C34.8391 29.2975 34.9585 29.4372 35.1072 29.54C35.2854 29.6638 35.4973 29.7298 35.7142 29.7293C35.797 29.7293 35.8795 29.7194 35.9599 29.6998C36.2128 29.6387 36.4347 29.4876 36.5841 29.2747C36.659 29.1669 36.7132 29.046 36.7438 28.9184C36.7955 28.7104 36.7828 28.4916 36.7073 28.291C36.6318 28.0905 36.4972 27.9176 36.3211 27.7954ZM35.5299 28.9331C35.4945 28.9091 35.4644 28.8782 35.4411 28.8424C35.4179 28.8065 35.4021 28.7663 35.3947 28.7242C35.3869 28.6799 35.3884 28.6345 35.3991 28.5908C35.4098 28.5472 35.4295 28.5062 35.4568 28.4705C35.4842 28.4349 35.5187 28.4053 35.5581 28.3836C35.5975 28.362 35.641 28.3488 35.6858 28.3449C35.7306 28.3409 35.7757 28.3463 35.8183 28.3608C35.8609 28.3752 35.9 28.3984 35.9332 28.4287C35.9664 28.4591 35.9928 28.496 36.011 28.5371C36.0291 28.5783 36.0385 28.6227 36.0385 28.6677C36.0391 28.7335 36.0194 28.7979 35.982 28.852C35.9577 28.8871 35.9267 28.917 35.8908 28.94C35.8549 28.9631 35.8148 28.9788 35.7728 28.9864C35.7308 28.9939 35.6877 28.9931 35.646 28.9839C35.6043 28.9748 35.5649 28.9575 35.5299 28.9331Z" fill="white"/>
<path d="M27.3326 14.6219L27.2048 14.6538L27.0868 14.6809C26.6732 14.7833 26.2514 14.8491 25.8262 14.8775C24.6885 14.9601 23.547 14.781 22.4892 14.3541C21.3876 13.9063 20.41 13.2 19.6388 12.2948C19.565 12.2113 19.4987 12.1294 19.4397 12.0491C19.2502 11.8156 19.077 11.5692 18.9212 11.3119L18.8917 11.2628L18.8303 11.1596L18.7394 11.0048L18.4937 11.0859L18.1349 11.2087L14.0607 12.6118L13.7044 12.7347L13.353 12.8551L12.9967 12.978L9.58352 14.155L10.4632 20.3154L10.4804 20.4334L10.537 20.8364L11.0063 20.8143H11.1636L12.8345 20.603L9.95949 27.0632L9.92754 27.1246L9.46803 28.0092L9.45329 28.0387L9.42134 28.0977L9.37219 28.1935L9.12646 28.685L9.32796 28.8128C9.50735 28.7882 9.68673 28.7661 9.86857 28.7489C10.0946 28.7268 10.3207 28.7096 10.5492 28.6997L10.0946 28.4221L10.2396 28.1419L10.3281 27.9724L10.4632 27.7266L10.4903 27.675L11.021 26.6528V26.6356L14.0804 19.8019L11.9229 20.0476H11.7214L11.1734 20.0697L11.1365 19.8043L11.1095 19.6225L10.4018 14.6637L13.0704 13.7446L13.7929 13.4989L18.2946 11.9484L18.4175 11.9066C18.5084 12.0467 18.6141 12.199 18.7369 12.3612C18.8598 12.5234 19.0097 12.6978 19.167 12.8846C19.2874 13.0222 19.4127 13.1598 19.5626 13.2999C20.3203 14.0471 21.218 14.6375 22.2042 15.0372C23.7355 15.6533 25.4159 15.7988 27.0303 15.4549L31.0603 21.178L28.1508 26.294L25.583 23.9744L22.2705 33.0934L22.1157 33.5234L22.0101 33.8306L21.8749 33.7888C22.0387 33.9936 22.2025 34.2024 22.3664 34.4154L22.5163 34.6292L22.6588 34.2336L22.821 33.7888L25.9024 25.2694L28.34 27.4637L31.9203 21.1362L27.3326 14.6219Z" fill="white"/>
<path d="M18.7191 11.1094L18.4351 11.7897L27.0361 15.3805L27.3201 14.7002L18.7191 11.1094Z" fill="white"/>
<path d="M36.3164 15.777H36.2206C35.0506 15.8139 33.9187 16.2017 32.972 16.8901C32.3214 17.365 31.7788 17.9721 31.3797 18.6717C31.3109 18.7896 31.2494 18.9174 31.1954 19.0182C31.1413 19.1189 31.0676 19.2958 31.0185 19.4212L30.8686 19.7996L30.844 19.8635H30.9275L31.2617 19.9052H31.3158C31.5155 19.9297 31.7166 19.942 31.9178 19.9421C32.7172 19.9463 33.5047 19.7494 34.208 19.3696C35.3517 18.7214 36.1939 17.6487 36.5523 16.3839C36.567 16.3299 36.5793 16.2807 36.5891 16.2414L36.7022 15.7745L36.3164 15.777ZM33.8591 18.7405C33.2643 19.0643 32.5975 19.2333 31.9203 19.2319C32.2708 18.5466 32.7754 17.9519 33.3947 17.4946C34.0752 16.9994 34.8681 16.6811 35.7021 16.5682C35.3638 17.4874 34.7109 18.257 33.8591 18.7405Z" fill="white"/>
<path d="M36.2206 5.11962C35.0506 5.15649 33.9187 5.54433 32.972 6.23277C32.1277 6.85344 31.4678 7.69172 31.0627 8.65812C31.0559 8.67075 31.0502 8.6839 31.0455 8.69744C31.0455 8.71955 31.0258 8.73921 31.0185 8.76133L30.844 9.20364L31.3158 9.26262L31.5198 9.28227C31.6033 9.28227 31.6942 9.28227 31.7901 9.29702H31.9178C32.207 9.29812 32.4956 9.27345 32.7803 9.2233C33.2815 9.13889 33.7655 8.97286 34.2129 8.73184C34.8026 8.39371 35.3173 7.93921 35.7258 7.39597C36.1343 6.85272 36.428 6.23207 36.5891 5.57176L36.7022 5.10242L36.2206 5.11962ZM33.8591 8.08066C33.3102 8.37788 32.6991 8.54201 32.0751 8.55983C32.021 8.55983 31.9694 8.55983 31.9203 8.55983C31.9375 8.52788 31.9547 8.49594 31.9743 8.464C32.3281 7.81768 32.8217 7.25854 33.4192 6.82744C34.0995 6.33188 34.8925 6.0135 35.7266 5.90104C35.3837 6.8269 34.7214 7.59985 33.8591 8.08066Z" fill="white"/>
<path d="M29.6766 9.56467C29.5271 9.34962 29.3629 9.14518 29.1852 8.95281C28.5745 8.28867 27.8172 7.77624 26.9736 7.45632C25.9538 7.07248 24.8457 6.98724 23.7791 7.21059L23.3123 7.30396L23.5211 7.73153C23.9631 8.6347 24.6739 9.37891 25.5558 9.86201C26.242 10.226 27.0077 10.4143 27.7845 10.41C28.3699 10.4108 28.9513 10.3137 29.5046 10.1225L29.5513 10.1053L29.9592 9.9603L29.6766 9.56467ZM25.9072 9.21082C25.3097 8.88836 24.8028 8.42113 24.4328 7.85194C25.2023 7.77304 25.9795 7.87399 26.7033 8.14682C27.4935 8.44321 28.1971 8.93227 28.7502 9.56959C27.79 9.79156 26.7821 9.66437 25.9072 9.21082Z" fill="white"/>
<path d="M28.7626 20.4455C28.5891 19.9661 28.3199 19.5269 27.9714 19.1547C27.6229 18.7826 27.2023 18.4852 26.7353 18.2807L26.293 18.089L26.2242 18.5804C26.1067 19.3919 26.223 20.22 26.5594 20.9677C26.8959 21.7154 27.4385 22.3518 28.1237 22.8021L28.2441 22.8783L28.6495 23.124L28.7896 22.6694C28.7896 22.635 28.8117 22.5957 28.8215 22.5539C29.0106 21.8607 28.99 21.1271 28.7626 20.4455ZM27.2882 20.7748C27.0506 20.2912 26.9247 19.7605 26.9196 19.2218C27.4518 19.5687 27.8544 20.0819 28.0647 20.6814C28.1986 21.0805 28.2423 21.5044 28.1925 21.9224C27.8151 21.6063 27.5072 21.2156 27.2882 20.7748Z" fill="white"/>
<path d="M29.8856 1.81928L29.6546 1.39417L29.3057 1.72836C28.6744 2.33439 28.2395 3.11594 28.0574 3.97187C28.0402 4.0505 28.0279 4.12668 28.0156 4.20285C27.937 4.73109 27.957 5.26932 28.0746 5.79026C28.1175 5.9822 28.1733 6.17102 28.2417 6.35544L28.4088 6.80267L28.797 6.52991C28.8584 6.48568 28.9297 6.43408 29.0059 6.37264L29.0501 6.33333C29.5489 5.92152 29.9267 5.3823 30.1436 4.77294C30.3028 4.28879 30.362 3.77735 30.3176 3.26964C30.2733 2.76193 30.1263 2.2685 29.8856 1.81928ZM29.4482 4.5223C29.3067 4.91706 29.0792 5.27545 28.7823 5.57157C28.6769 5.06884 28.6819 4.54926 28.7969 4.04865C28.9119 3.54805 29.1341 3.07835 29.4482 2.67196C29.6521 3.27357 29.6521 3.9256 29.4482 4.52722V4.5223Z" fill="white"/>
<path d="M30.817 15.0741L30.4558 14.4328C30.4828 14.418 33.2104 12.865 34.3457 10.9926L34.9748 11.3734C33.7412 13.413 30.935 15.0078 30.817 15.0741Z" fill="white"/>
<path d="M36.0928 10.8352C36.0692 10.6976 36.0183 10.566 35.9432 10.4483C35.8681 10.3306 35.7702 10.229 35.6554 10.1496C35.4243 9.99054 35.1397 9.92917 34.8636 9.97887C34.5874 10.0286 34.3421 10.1853 34.181 10.415C34.134 10.4822 34.0952 10.5548 34.0655 10.6313C33.9661 10.8797 33.9661 11.1569 34.0655 11.4053C34.1388 11.6045 34.2718 11.7761 34.4464 11.8968C34.4839 11.9234 34.5233 11.9472 34.5643 11.968C34.7159 12.0476 34.8846 12.089 35.0558 12.0884H35.159L35.245 12.0761C35.3826 12.0516 35.514 12.0001 35.6317 11.9246C35.7493 11.8491 35.8509 11.7511 35.9306 11.6363C36.01 11.5205 36.0652 11.3899 36.0931 11.2522C36.121 11.1146 36.1209 10.9728 36.0928 10.8352ZM35.3163 11.2087C35.2922 11.2438 35.2613 11.2737 35.2254 11.2965C35.1895 11.3193 35.1494 11.3346 35.1074 11.3414C35.0631 11.3492 35.0177 11.3477 34.974 11.337C34.9304 11.3263 34.8894 11.3067 34.8537 11.2793C34.818 11.2519 34.7884 11.2174 34.7668 11.178C34.7452 11.1386 34.732 11.0951 34.728 11.0503C34.7241 11.0055 34.7295 10.9604 34.744 10.9178C34.7584 10.8752 34.7815 10.8361 34.8119 10.803C34.8422 10.7698 34.8792 10.7433 34.9203 10.7252C34.9615 10.707 35.0059 10.6976 35.0509 10.6976C35.1179 10.6967 35.1833 10.7174 35.2376 10.7566C35.2727 10.7806 35.3026 10.8115 35.3254 10.8474C35.3482 10.8833 35.3635 10.9235 35.3703 10.9654C35.3852 11.0505 35.3657 11.1379 35.3163 11.2087Z" fill="white"/>
<path d="M35.5841 12.0049C35.5552 11.9846 35.5248 11.9665 35.4932 11.9509C35.354 11.8729 35.1991 11.8276 35.0399 11.8182C34.8807 11.8089 34.7214 11.8357 34.5741 11.8968C34.3841 11.972 34.2207 12.102 34.1048 12.2703C33.9451 12.5012 33.8833 12.786 33.9331 13.0623C33.9828 13.3386 34.14 13.584 34.3702 13.7447C34.5474 13.8685 34.7585 13.9346 34.9747 13.9339C35.0382 13.9343 35.1015 13.9285 35.1639 13.9167C35.3447 13.8843 35.5141 13.8056 35.6554 13.6882C35.7272 13.627 35.7908 13.5568 35.8446 13.4793C35.9751 13.2935 36.0408 13.0698 36.0313 12.8429C36.0273 12.678 35.9848 12.5163 35.9072 12.3708C35.8295 12.2253 35.7189 12.1 35.5841 12.0049ZM35.2425 13.064C35.2185 13.0991 35.1876 13.129 35.1517 13.1518C35.1158 13.1746 35.0756 13.1899 35.0337 13.1967C34.9913 13.2048 34.9478 13.2043 34.9056 13.1955C34.8635 13.1866 34.8235 13.1695 34.7879 13.1451C34.7177 13.0978 34.6678 13.0259 34.6479 12.9436C34.6402 12.9011 34.641 12.8575 34.6503 12.8154C34.6596 12.7732 34.6771 12.7333 34.7019 12.6979C34.7321 12.655 34.7723 12.6201 34.8189 12.5961C34.8656 12.5722 34.9173 12.5599 34.9698 12.5603H34.9968C35.0533 12.5628 35.1079 12.5816 35.1541 12.6143C35.2152 12.6569 35.2598 12.7193 35.2804 12.7909C35.301 12.8625 35.2963 12.939 35.2671 13.0075C35.2617 13.0275 35.2535 13.0465 35.2425 13.064Z" fill="white"/>
<path d="M34.068 11.1596C34.0603 11.1136 34.0488 11.0684 34.0336 11.0244C33.9604 10.8058 33.8181 10.6169 33.6281 10.4863C33.5916 10.4601 33.553 10.4371 33.5126 10.4175C33.3054 10.3055 33.0659 10.2682 32.8344 10.3118C32.5712 10.3561 32.3343 10.4979 32.1709 10.7091C32.0076 10.9202 31.9298 11.1852 31.953 11.4511C31.9763 11.717 32.0988 11.9644 32.2963 12.144C32.4938 12.3236 32.7518 12.4222 33.0187 12.4202C33.0822 12.4207 33.1456 12.4149 33.2079 12.403C33.2289 12.4004 33.2495 12.3954 33.2693 12.3882C33.5237 12.3292 33.7465 12.1765 33.8935 11.9607C33.9695 11.851 34.0252 11.7287 34.0581 11.5994C34.091 11.455 34.0943 11.3054 34.068 11.1596ZM33.085 11.6682C32.9992 11.6835 32.9108 11.664 32.8393 11.6142C32.8045 11.5897 32.7748 11.5585 32.7519 11.5225C32.7291 11.4865 32.7136 11.4464 32.7063 11.4044C32.699 11.3624 32.7 11.3194 32.7094 11.2778C32.7187 11.2362 32.7361 11.1969 32.7607 11.162C32.7847 11.1267 32.8155 11.0965 32.8514 11.0733C32.8873 11.0501 32.9275 11.0343 32.9696 11.0269H33.0261C33.0929 11.0268 33.1581 11.0474 33.2128 11.0859C33.2826 11.1358 33.3301 11.211 33.3452 11.2955C33.3604 11.3799 33.342 11.4669 33.2939 11.538C33.2684 11.5731 33.2361 11.6026 33.199 11.625C33.1618 11.6474 33.1206 11.6621 33.0777 11.6682H33.085Z" fill="white"/>
<path d="M24.1944 33.6782C24.1216 33.6782 24.0504 33.6565 23.9898 33.616C23.9293 33.5755 23.8821 33.5179 23.8542 33.4506C23.8263 33.3833 23.819 33.3093 23.8332 33.2378C23.8474 33.1663 23.8825 33.1007 23.934 33.0492C25.9956 30.9949 30.7775 25.321 30.6866 17.0129C30.6276 11.6068 28.0917 5.38494 26.3077 2.70157C26.2536 2.62011 26.2341 2.52049 26.2535 2.42464C26.2728 2.32879 26.3295 2.24455 26.4109 2.19045C26.4924 2.13636 26.592 2.11685 26.6879 2.1362C26.7837 2.15556 26.8679 2.2122 26.922 2.29366C28.7552 5.0532 31.3648 11.4397 31.4238 17.0055C31.5172 25.606 26.5805 31.4519 24.4549 33.5701C24.421 33.6047 24.3804 33.6321 24.3357 33.6506C24.2909 33.6692 24.2429 33.6786 24.1944 33.6782Z" fill="white"/>
<path d="M28.9371 26.7856L28.2245 26.5963C28.5276 25.2967 28.4801 23.9399 28.0869 22.6647L28.7848 22.4189C29.2296 23.8339 29.2822 25.343 28.9371 26.7856Z" fill="white"/>
<path d="M30.1166 12.3441C29.9569 9.77127 31.0602 8.68023 31.0995 8.63354L31.6131 9.16186C31.6131 9.16186 30.7162 10.0932 30.8538 12.2998L30.1166 12.3441Z" fill="white"/>
<path d="M32.6182 32.2479C32.9131 32.2799 33.1515 32.3118 33.2719 32.329C33.0483 32.3045 32.8271 32.2823 32.6059 32.2676C32.316 32.2455 32.0309 32.2332 31.7483 32.2283C31.3085 32.2283 30.876 32.2283 30.4558 32.2504C30.8901 32.1578 31.3363 32.1346 31.7778 32.1816C32.0703 32.1963 32.3651 32.2234 32.6182 32.2479Z" fill="white"/>
</g>
<path d="M60.7423 34.2469V11.6251H51.9924V9.34869H72.1244V11.6251H63.3744V34.2469H60.7423ZM94.5406 9.34869H97.1371V34.2469H94.5406V9.34869ZM78.9614 34.2469H76.3293V9.34869H78.9614V34.2469ZM94.7896 22.7582H78.6769V20.4462H94.7896V22.7582ZM105.264 34.2469V9.34869H114.583C116.693 9.34869 118.507 9.69253 120.025 10.3802C121.543 11.0441 122.704 12.0164 123.511 13.2968C124.341 14.5536 124.756 16.0831 124.756 17.8852C124.756 19.64 124.341 21.1576 123.511 22.4381C122.704 23.6948 121.543 24.667 120.025 25.3547C118.507 26.0187 116.693 26.3506 114.583 26.3506H106.722L107.896 25.1413V34.2469H105.264ZM122.266 34.2469L115.863 25.2124H118.709L125.147 34.2469H122.266ZM107.896 25.3547L106.722 24.1098H114.512C117.002 24.1098 118.887 23.5644 120.167 22.4736C121.471 21.3829 122.123 19.8534 122.123 17.8852C122.123 15.8934 121.471 14.3521 120.167 13.2613C118.887 12.1705 117.002 11.6251 114.512 11.6251H106.722L107.896 10.3802V25.3547ZM130.968 34.2469V9.34869H133.6V34.2469H130.968ZM144.049 21.4066H157.209V23.683H144.049V21.4066ZM144.333 34.2469H141.701V9.34869H158.774V11.6251H144.333V34.2469ZM169.221 34.2469V11.6251H160.471V9.34869H180.603V11.6251H171.853V34.2469H169.221ZM195.344 34.4604C193.471 34.4604 191.728 34.1521 190.116 33.5356C188.527 32.8953 187.14 32.0061 185.954 30.8679C184.792 29.706 183.879 28.3662 183.215 26.8486C182.575 25.3073 182.255 23.6237 182.255 21.7978C182.255 19.9719 182.575 18.3002 183.215 16.7826C183.879 15.2413 184.792 13.9015 185.954 12.7633C187.14 11.6014 188.527 10.7122 190.116 10.0956C191.704 9.4554 193.447 9.13528 195.344 9.13528C197.218 9.13528 198.949 9.4554 200.537 10.0956C202.126 10.7122 203.501 11.5895 204.663 12.7277C205.849 13.8659 206.762 15.2057 207.402 16.747C208.066 18.2884 208.398 19.9719 208.398 21.7978C208.398 23.6237 208.066 25.3073 207.402 26.8486C206.762 28.3899 205.849 29.7297 204.663 30.8679C203.501 32.0061 202.126 32.8953 200.537 33.5356C198.949 34.1521 197.218 34.4604 195.344 34.4604ZM195.344 32.1128C196.838 32.1128 198.214 31.8638 199.47 31.3659C200.751 30.8442 201.853 30.121 202.778 29.1962C203.727 28.2477 204.462 27.1569 204.984 25.9238C205.505 24.667 205.766 23.2917 205.766 21.7978C205.766 20.3039 205.505 18.9405 204.984 17.7074C204.462 16.4506 203.727 15.3598 202.778 14.4351C201.853 13.4865 200.751 12.7633 199.47 12.2653C198.214 11.7437 196.838 11.4828 195.344 11.4828C193.85 11.4828 192.463 11.7437 191.183 12.2653C189.902 12.7633 188.788 13.4865 187.839 14.4351C186.914 15.3598 186.179 16.4506 185.634 17.7074C185.112 18.9405 184.851 20.3039 184.851 21.7978C184.851 23.268 185.112 24.6315 185.634 25.8882C186.179 27.145 186.914 28.2477 187.839 29.1962C188.788 30.121 189.902 30.8442 191.183 31.3659C192.463 31.8638 193.85 32.1128 195.344 32.1128ZM214.298 34.2469V9.34869H223.617C225.727 9.34869 227.541 9.69253 229.059 10.3802C230.577 11.0441 231.738 12.0164 232.545 13.2968C233.375 14.5536 233.79 16.0831 233.79 17.8852C233.79 19.64 233.375 21.1576 232.545 22.4381C231.738 23.6948 230.577 24.667 229.059 25.3547C227.541 26.0424 225.727 26.3862 223.617 26.3862H215.756L216.93 25.1413V34.2469H214.298ZM216.93 25.3547L215.756 24.0742H223.546C226.036 24.0742 227.921 23.5407 229.201 22.4736C230.505 21.3829 231.158 19.8534 231.158 17.8852C231.158 15.8934 230.505 14.3521 229.201 13.2613C227.921 12.1705 226.036 11.6251 223.546 11.6251H215.756L216.93 10.3802V25.3547ZM239.481 34.2469V9.34869H242.113V34.2469H239.481ZM246.23 34.2469L257.612 9.34869H260.209L271.591 34.2469H268.817L258.359 10.8782H259.426L248.969 34.2469H246.23ZM250.712 27.5956L251.495 25.4614H265.971L266.754 27.5956H250.712Z" fill="white"/>
<defs>
<clipPath id="clip0_71_471">
<rect width="41.2702" height="40.7051" fill="white" transform="translate(0 1.39417)"/>
</clipPath>
</defs>
</svg>
