<svg width="380" height="62" viewBox="0 0 380 62" fill="none" xmlns="http://www.w3.org/2000/svg">
<g clip-path="url(#clip0_71_407)">
<path d="M49.3473 47.2411C49.2496 47.2203 49.148 47.2291 49.0553 47.2663C48.9626 47.3035 48.8831 47.3674 48.8269 47.4499C48.2241 48.3059 47.5701 49.1246 46.8684 49.9014C46.6127 50.1936 46.3457 50.4778 46.0672 50.754C43.3635 53.4996 40.0796 55.6054 36.4563 56.917C36.1139 57.0368 35.799 57.1464 35.4668 57.2594C33.3846 57.9153 31.2273 58.3031 29.047 58.4132C28.7047 58.4132 28.3623 58.4406 28.0199 58.444H27.7288C24.2015 58.4468 20.7114 57.7229 17.4762 56.3173C14.241 54.9118 11.33 52.8548 8.92485 50.2746C8.6886 50.0247 8.4592 49.7713 8.24007 49.5111C6.96148 48.0346 5.85527 46.4172 4.94287 44.6903C4.77852 44.3821 4.62102 44.0706 4.47037 43.7556C3.90294 42.5787 3.42787 41.3596 3.04945 40.1091C2.93304 39.7291 2.8269 39.3422 2.73103 38.9553C2.21398 36.8999 1.95293 34.7884 1.95381 32.669C1.95381 32.3711 1.95381 32.0732 1.95381 31.7788C1.95381 31.3987 1.98463 31.0187 2.01544 30.6455C2.34313 26.5463 3.6462 22.585 5.81597 19.0918C7.98574 15.5986 10.9593 12.6748 14.4887 10.5644C14.8105 10.3692 15.1392 10.1809 15.4713 10.0029C17.5301 8.88632 19.733 8.05908 22.0178 7.5445C22.4081 7.45548 22.7984 7.37673 23.1922 7.30826C28.1219 6.42868 33.2011 7.00453 37.8088 8.96542C37.9036 9.00629 38.0086 9.01724 38.1098 8.99679C38.211 8.97635 38.3035 8.92549 38.375 8.85102C38.4465 8.77656 38.4935 8.68203 38.5098 8.5801C38.5261 8.47817 38.5109 8.37369 38.4662 8.28064C38.4145 8.16916 38.3229 8.08116 38.2094 8.03412C34.8984 6.6174 31.3336 5.88931 27.7323 5.89419C25.9292 5.89324 24.1307 6.07332 22.3636 6.43174C21.963 6.51734 21.5658 6.60636 21.1721 6.70908C18.8464 7.29517 16.6109 8.19355 14.5263 9.37971C14.1839 9.57487 13.8416 9.77346 13.5197 9.98574C10.0503 12.1546 7.12337 15.0889 4.96312 18.5637C2.80287 22.0385 1.46663 25.9616 1.05675 30.0326C1.01566 30.4195 0.988274 30.827 0.96773 31.207C0.926644 31.6898 0.926644 32.1965 0.926644 32.669C0.925112 34.6572 1.14561 36.6394 1.58403 38.5786C1.67305 38.9792 1.77234 39.3764 1.88191 39.7667C2.32063 41.3659 2.9087 42.9204 3.63836 44.4095C3.79244 44.7245 3.95336 45.0395 4.12113 45.3477C5.05421 47.0764 6.1724 48.6985 7.456 50.1856C7.68426 50.4436 7.91252 50.6969 8.14078 50.9457C10.6428 53.6369 13.6732 55.7828 17.0425 57.2492C20.4118 58.7155 24.0474 59.4708 27.722 59.4678H28.0644C28.4113 59.4678 28.7537 59.4575 29.0916 59.437C31.2912 59.3265 33.4684 58.9424 35.573 58.2934C35.9154 58.1941 36.2578 58.0845 36.5762 57.951C41.8654 56.0857 46.4395 52.6142 49.6589 48.0217C49.7077 47.9528 49.7388 47.873 49.7494 47.7892C49.76 47.7054 49.7498 47.6203 49.7197 47.5414C49.6895 47.4625 49.6404 47.3923 49.5767 47.3369C49.5129 47.2815 49.4365 47.2427 49.3541 47.224L49.3473 47.2411Z" fill="#0155B6"/>
<path d="M15.2453 38.3389L14.8036 38.5135C10.9329 39.9614 6.6972 40.1164 2.73099 38.9552C2.34409 38.8422 1.96061 38.7155 1.58398 38.5786C1.67301 38.9792 1.7723 39.3763 1.88186 39.7667C2.26534 39.8933 2.65566 40.0063 3.04941 40.1091C4.70398 40.5402 6.40695 40.7576 8.11677 40.7562C8.99025 40.7557 9.86283 40.6997 10.7292 40.5884C11.8145 40.4486 12.8863 40.2196 13.934 39.9036L14.1291 39.842C14.2684 39.8009 14.4087 39.7564 14.5503 39.7085C14.8926 39.5955 15.235 39.4722 15.5466 39.3421L16.2862 37.9178V37.8938C15.9472 38.0479 15.598 38.1985 15.2453 38.3389ZM28.0815 18.0832C28.0815 18.0421 28.0815 18.0044 28.0815 17.9633C28.0815 17.9223 28.0815 17.8777 28.0643 17.8367C28.0472 17.7956 28.0438 17.6792 28.0301 17.6004C27.9959 17.3744 27.9582 17.1519 27.9171 16.9156C27.9171 16.8198 27.8795 16.7205 27.8589 16.6246C27.1512 13.1571 25.5375 9.93904 23.1819 7.29793C22.9114 6.9932 22.6341 6.69532 22.3465 6.40771C21.9459 6.49331 21.5487 6.58233 21.1549 6.68505C21.4494 6.95896 21.7336 7.23972 22.0075 7.53417C24.3148 9.97475 25.9354 12.9822 26.7051 16.2514C26.729 16.3438 26.7496 16.4363 26.7701 16.5287C26.7907 16.6212 26.8044 16.6725 26.8146 16.7479C26.8162 16.7581 26.8162 16.7685 26.8146 16.7787C26.8557 16.9738 26.8934 17.1758 26.9276 17.3744C26.9482 17.4806 26.9653 17.5901 26.9824 17.6963C26.9995 17.8024 27.0132 17.9051 27.0269 18.0113C27.205 18.2509 27.407 18.5009 27.6364 18.7611C27.8041 18.9528 27.9788 19.1446 28.1876 19.3397C28.1705 18.9186 28.1328 18.5009 28.0815 18.0832Z" fill="#0155B6"/>
<path d="M20.5182 18.381C20.4805 18.0968 20.4257 17.816 20.3641 17.5387C19.6898 14.5221 17.9533 11.8486 15.4714 10.0061C15.1632 9.77672 14.8482 9.56102 14.5195 9.35901C14.1771 9.55417 13.8348 9.75276 13.5129 9.96504C13.8484 10.1488 14.1742 10.3499 14.4887 10.5676C16.9639 12.261 18.7041 14.8308 19.3575 17.7578C19.4294 18.0762 19.4876 18.4049 19.5321 18.7336C19.5321 18.7336 19.5321 18.7542 19.5321 18.7644L20.5422 18.5624C20.5381 18.5015 20.53 18.4409 20.5182 18.381ZM17.2586 28.7382L16.4951 28.7725L16.4438 28.4027C16.2931 28.5636 16.139 28.7211 15.9815 28.8718C15.824 29.0224 15.6837 29.1491 15.5296 29.2826C13.6929 30.8696 11.4121 31.8524 8.99723 32.0974C6.58235 32.3425 4.15059 31.8378 2.0326 30.6522C1.69678 30.4627 1.37107 30.2558 1.05679 30.0325C1.01571 30.4194 0.988317 30.8268 0.967773 31.2068C1.31016 31.4123 1.62858 31.604 1.97097 31.7786C4.30278 32.9681 6.94257 33.416 9.53621 33.0622C12.1299 32.7085 14.5533 31.5701 16.4814 29.7996C16.5704 29.722 16.6595 29.6398 16.7485 29.5531C17.0224 29.286 17.286 29.0087 17.5394 28.7177L17.2586 28.7382Z" fill="#0155B6"/>
<path d="M36.4565 56.9172C36.3675 56.3146 36.2545 55.7222 36.1141 55.1402C36.0422 54.8286 35.9566 54.517 35.8676 54.2123C35.2653 52.1703 34.3406 50.2377 33.1285 48.4875C33.0772 48.4088 33.0258 48.3335 32.971 48.2581L32.6937 47.8747L32.5156 47.6418C32.4335 47.5323 32.3513 47.4261 32.2657 47.32C32.1801 47.2139 32.0534 47.0564 31.9438 46.9297C30.0575 44.6777 27.7002 42.8667 25.0382 41.6244C22.3761 40.3821 19.474 39.7387 16.5363 39.7395C16.2453 39.7395 15.9577 39.7395 15.6701 39.76H15.3106C15.0264 39.7772 14.7491 39.7977 14.4717 39.8251L14.0985 39.8696L13.9239 39.8902C12.8386 40.0296 11.7667 40.2586 10.7192 40.5749C8.46391 41.256 6.34636 42.3293 4.46371 43.7455C4.18295 43.9543 3.90561 44.1734 3.63855 44.3994C3.79262 44.7144 3.95355 45.0294 4.12132 45.3376C4.38496 45.1082 4.65887 44.889 4.9362 44.6802C7.55096 42.6644 10.6466 41.3662 13.9171 40.9139C14.167 40.8797 14.417 40.8488 14.6703 40.8249C14.9853 40.7941 15.3003 40.7701 15.6187 40.7564C15.9372 40.7427 16.2008 40.7324 16.4918 40.7324H16.5363C19.2656 40.7313 21.9633 41.316 24.4472 42.4472C26.931 43.5783 29.143 45.2295 30.9338 47.2892C31.0936 47.4741 31.2511 47.6624 31.4063 47.8541C31.6346 48.1394 31.8628 48.4305 32.0911 48.7272L32.2999 49.0251C33.9903 51.477 35.081 54.2917 35.4841 57.2424C35.5321 57.5848 35.5697 57.9272 35.5971 58.2696C35.9395 58.1703 36.2819 58.0607 36.6003 57.9272C36.5353 57.6088 36.5079 57.263 36.4565 56.9172Z" fill="#0155B6"/>
<path d="M29.047 58.4063C28.8395 56.094 28.0097 53.8811 26.6456 52.0026C25.2815 50.124 23.4341 48.65 21.2996 47.7371C19.1651 46.8241 16.8231 46.5064 14.5225 46.8175C12.2219 47.1286 10.0485 48.0571 8.23316 49.5042C7.96609 49.7165 7.70588 49.9424 7.45593 50.189C7.68419 50.4469 7.91245 50.7003 8.14071 50.9491C8.39065 50.7128 8.65087 50.4903 8.92136 50.2643C10.5897 48.9483 12.5818 48.1063 14.6882 47.8268C16.7946 47.5472 18.9374 47.8406 20.8912 48.6759C22.845 49.5112 24.5375 50.8577 25.7908 52.5736C27.0441 54.2896 27.8117 56.3115 28.013 58.4268C28.0472 58.7692 28.0643 59.1116 28.0677 59.454C28.4147 59.454 28.7571 59.4437 29.0949 59.4232C29.0926 59.0762 29.0766 58.7373 29.047 58.4063Z" fill="#0155B6"/>
<path d="M45.5332 38.0172L45.3517 37.3701L44.7731 37.7125C43.7237 38.3398 42.8883 39.2695 42.3763 40.3797C41.9118 41.4003 41.7433 42.531 41.8901 43.6427C41.8901 43.6427 41.8901 43.6632 41.8901 43.6735L41.9792 44.3309L42.592 44.0809C42.7016 44.0364 42.8317 43.9782 42.9755 43.9097C43.7875 43.4975 44.4734 42.8742 44.9614 42.1054C45.329 41.4983 45.5692 40.8229 45.6675 40.1201C45.7658 39.4173 45.7201 38.7018 45.5332 38.0172ZM44.1088 41.5644C43.7965 42.0611 43.3764 42.4813 42.8797 42.7936C42.8877 42.0729 43.0527 41.3626 43.3632 40.7122C43.6736 40.0618 44.122 39.4868 44.6772 39.0273C44.7753 39.9148 44.5754 40.8098 44.1088 41.5712V41.5644Z" fill="#0155B6"/>
<path d="M46.8887 49.9391L46.8682 49.9015C46.4191 49.0635 45.78 48.3423 45.0021 47.7958C44.7995 47.6496 44.5866 47.518 44.3653 47.402C44.2729 47.3541 44.177 47.3062 44.0845 47.2651C43.1543 46.8327 42.1286 46.6465 41.1058 46.7241L40.4449 46.7755L40.6572 47.402C40.9467 48.2475 41.4518 49.0028 42.1227 49.5933C42.2388 49.6976 42.3612 49.7947 42.489 49.8843C42.6539 50.0003 42.8254 50.1066 43.0026 50.2028C43.7499 50.5953 44.5825 50.7976 45.4267 50.7917C45.6407 50.7928 45.8546 50.7803 46.067 50.754C46.227 50.7385 46.3859 50.7133 46.5429 50.6787L47.2003 50.5349L46.8887 49.9391ZM43.725 49.4118C43.5029 49.3112 43.2908 49.1897 43.0916 49.0489C42.9978 48.9817 42.9076 48.9097 42.8211 48.8332C42.465 48.5263 42.166 48.1589 41.9378 47.7478C42.4535 47.7837 42.9605 47.8992 43.4408 48.0902C43.595 48.152 43.7459 48.2217 43.8928 48.2991C44.064 48.3878 44.2288 48.4885 44.3858 48.6004C44.8445 48.9159 45.2473 49.3059 45.5774 49.7542C44.9418 49.7836 44.3081 49.6665 43.725 49.4118Z" fill="#0155B6"/>
<path d="M43.0096 43.9337C42.7743 44.2271 42.5229 44.5072 42.2563 44.7725C41.6948 45.3375 41.1196 45.7997 40.8868 46.0051L40.7327 46.0291L40.1438 45.2861L40.4862 44.9985C40.9828 44.5797 41.4528 44.1303 41.8934 43.6529C41.9995 43.5365 42.0988 43.4167 42.1913 43.3105L42.9822 43.9303L43.0096 43.9337Z" fill="#0155B6"/>
<path d="M43.0849 49.0489C43.284 49.1897 43.4961 49.3113 43.7183 49.4119C43.4786 49.6892 43.2389 49.9529 43.0027 50.2028C39.6747 53.7568 36.5624 55.0236 36.3432 55.1092C36.2843 55.1322 36.2216 55.1438 36.1583 55.1435H36.1104C36.0058 55.1345 35.9065 55.0934 35.826 55.0259C35.7456 54.9584 35.688 54.8677 35.661 54.7662C35.6341 54.6647 35.6391 54.5573 35.6754 54.4588C35.7117 54.3603 35.7775 54.2753 35.8639 54.2156C35.8949 54.191 35.9295 54.1713 35.9666 54.1574C36.018 54.1368 38.9385 52.9385 42.1296 49.5968C42.359 49.3537 42.5918 49.1003 42.8144 48.8367C42.9009 48.912 42.9912 48.9828 43.0849 49.0489Z" fill="#0155B6"/>
<path d="M45.0674 46.3269C45.1598 46.3334 45.2488 46.3642 45.3254 46.4162C45.4021 46.4682 45.4635 46.5397 45.5035 46.6232C45.5435 46.7067 45.5607 46.7993 45.5533 46.8916C45.5458 46.984 45.514 47.0727 45.4611 47.1487C45.3105 47.3712 45.1564 47.5869 45.0023 47.7958C44.7969 48.0766 44.5881 48.3505 44.3792 48.6107C44.2221 48.4988 44.0574 48.3981 43.8862 48.3094C43.7392 48.232 43.5884 48.1623 43.4342 48.1005C43.6533 47.8335 43.869 47.5527 44.0847 47.2651C44.2559 47.0357 44.4271 46.796 44.5983 46.5529C44.65 46.4776 44.7205 46.4172 44.8028 46.3775C44.8851 46.3379 44.9763 46.3205 45.0674 46.3269Z" fill="#0155B6"/>
<path d="M46.8065 44.7656H46.9264C46.9275 44.7735 46.9275 44.7816 46.9264 44.7896L46.8853 44.8649C46.7175 45.1628 46.5429 45.4469 46.3786 45.7277L46.3614 45.7551C45.9574 45.7243 45.5603 45.7072 45.1665 45.7003L45.2076 45.6353C45.4028 45.3271 45.5979 45.0053 45.7896 44.6766H45.8855C46.1902 44.7108 46.5018 44.7348 46.8065 44.7656Z" fill="#0155B6"/>
<path d="M56.9448 31.4399C56.1002 31.7269 55.2887 32.1034 54.5241 32.5629C54.1685 32.7769 53.8255 33.0112 53.4969 33.2648C53.2259 33.4659 52.9653 33.6807 52.7163 33.9085C52.3324 34.2575 51.9721 34.6315 51.6378 35.0281C51.2471 35.4945 50.8912 35.9888 50.5729 36.5073C50.1216 37.2275 49.7572 37.9987 49.4876 38.8047C49.4259 38.9964 49.3677 39.1847 49.3027 39.3731C49.3027 39.397 49.3027 39.421 49.2787 39.445C49.0699 40.0715 48.8473 40.6707 48.6145 41.2494C48.5871 41.3178 48.5597 41.3863 48.5289 41.4548C48.1522 42.3861 47.7482 43.2557 47.3237 44.0706C46.9505 44.0501 46.5567 44.0398 46.1595 44.0432C47.1232 42.2762 47.9099 40.4183 48.5083 38.4965C48.7793 37.683 49.1398 36.9021 49.5834 36.1683C49.6622 36.0348 49.7478 35.9012 49.8334 35.7643C50.1032 35.3415 50.397 34.9345 50.7133 34.5454C51.1155 34.0503 51.5539 33.5857 52.0247 33.1553C52.4834 32.7384 52.9733 32.3573 53.4901 32.0151C53.8119 31.7994 54.1475 31.5974 54.4933 31.4091C55.1725 31.0419 55.8815 30.7327 56.6127 30.4846C56.6765 30.4622 56.7442 30.4525 56.8118 30.4561C56.8794 30.4598 56.9456 30.4767 57.0066 30.506C57.0677 30.5352 57.1223 30.5762 57.1675 30.6266C57.2127 30.677 57.2476 30.7358 57.2701 30.7996C57.2925 30.8635 57.3022 30.9311 57.2986 30.9987C57.2949 31.0663 57.278 31.1325 57.2487 31.1936C57.2195 31.2546 57.1785 31.3093 57.1281 31.3545C57.0777 31.3997 57.0189 31.4345 56.9551 31.457L56.9448 31.4399Z" fill="#0155B6"/>
<path d="M55.12 23.1368L54.894 22.5034L54.3393 22.8868C53.5457 23.4464 52.8571 24.1419 52.3055 24.9412C51.935 25.4725 51.6314 26.0475 51.4016 26.6531C50.8939 28.0068 50.7614 29.4725 51.0182 30.8953C51.0182 30.9672 51.0456 31.0323 51.0593 31.0973L51.1928 31.7479L51.7885 31.4568L51.9186 31.3918C52.4521 31.1133 52.948 30.7682 53.3943 30.3646C53.7382 30.0572 54.0471 29.7127 54.3154 29.3374C54.4783 29.1137 54.6259 28.8792 54.7571 28.6355C55.1886 27.792 55.4434 26.8691 55.5059 25.9236C55.5683 24.9781 55.437 24.0298 55.12 23.1368ZM54.062 27.6974C54.0004 27.8446 53.9285 27.9919 53.8497 28.1391C53.6796 28.4603 53.4752 28.7622 53.2403 29.0396C52.8684 29.4845 52.4308 29.8701 51.9426 30.1831C51.8327 29.1121 51.9734 28.0302 52.3535 27.0229C52.4531 26.7688 52.5674 26.5207 52.6959 26.2799C52.9057 25.8725 53.1558 25.4871 53.4423 25.1295C53.71 24.7862 54.0105 24.4697 54.3393 24.1845C54.6103 25.3561 54.5134 26.5828 54.062 27.6974Z" fill="#0155B6"/>
<path d="M57.9071 46.5049C56.9532 45.748 55.7935 45.2958 54.579 45.2072C53.5313 45.1302 52.4816 45.3298 51.5352 45.7859L51.3195 45.8954L50.9086 46.1146L50.734 46.207L50.8059 46.2858L51.1483 46.659L51.1791 46.6932C51.8895 47.4713 52.8238 48.0096 53.8532 48.234C54.1755 48.2995 54.5035 48.3328 54.8324 48.3332C55.9273 48.3176 56.9914 47.9689 57.8831 47.3335L58.448 46.9192L57.9071 46.5049ZM54.0655 47.2136C53.4925 47.0914 52.9543 46.8422 52.4905 46.4843C53.1673 46.2442 53.8884 46.1547 54.6033 46.2222C55.3183 46.2896 56.0099 46.5123 56.6299 46.8747C55.8357 47.2666 54.9343 47.3858 54.0655 47.2136Z" fill="#0155B6"/>
<path d="M49.5729 36.2163C49.5105 34.2647 50.0561 32.342 51.1342 30.7141L51.9902 31.2825C51.0277 32.7322 50.5417 34.4463 50.6001 36.1855L49.5729 36.2163Z" fill="#0155B6"/>
<path d="M50.087 36.7163C50.0024 36.7157 49.9192 36.6945 49.8447 36.6545C49.7701 36.6146 49.7064 36.557 49.6591 36.4869C49.6217 36.4307 49.5958 36.3677 49.5828 36.3014C49.5699 36.2352 49.57 36.1671 49.5834 36.101C49.5968 36.0348 49.623 35.972 49.6607 35.916C49.6983 35.86 49.7466 35.812 49.8029 35.7747C51.8572 34.4051 54.7778 34.9666 54.901 34.994C54.967 35.0071 55.0297 35.0331 55.0856 35.0705C55.1415 35.1079 55.1894 35.156 55.2267 35.212C55.2639 35.268 55.2897 35.3308 55.3025 35.3968C55.3154 35.4629 55.3151 35.5308 55.3016 35.5966C55.2882 35.6643 55.2614 35.7285 55.2228 35.7856C55.1842 35.8427 55.1346 35.8915 55.0769 35.9292C55.0191 35.9668 54.9544 35.9925 54.8866 36.0048C54.8188 36.0171 54.7492 36.0157 54.6819 36.0007C54.6579 36.0007 52.0695 35.4905 50.3575 36.6272C50.2777 36.6822 50.1839 36.713 50.087 36.7163Z" fill="#0155B6"/>
<path d="M51.559 45.6935L51.535 45.7688L51.2611 46.6761L51.1515 46.6453C49.9274 46.2806 48.6742 46.0217 47.4058 45.8715H47.3853H47.286C46.9744 45.8373 46.6662 45.8065 46.3581 45.7859C45.9541 45.7551 45.5569 45.738 45.1632 45.7311C44.5503 45.7311 43.9477 45.7311 43.3622 45.7619C42.5342 45.8057 41.7091 45.8926 40.8901 46.0222L40.7361 46.0461C37.9086 46.4812 35.1773 47.4009 32.6625 48.7647L32.1318 47.8882C34.7291 46.4455 37.5608 45.473 40.4964 45.0155C41.0613 44.9231 41.6502 44.8478 42.2563 44.7896C43.4295 44.6787 44.6092 44.6512 45.7863 44.7074H45.8822C46.1903 44.7074 46.5019 44.745 46.8169 44.7759H46.9367H47.0223C47.4469 44.8169 47.8783 44.8717 48.3166 44.9402H48.3576C48.4159 44.9402 48.4741 44.9402 48.5323 44.971H48.5939L49.4704 45.1354H49.532C50.1963 45.3134 50.8742 45.4846 51.559 45.6935Z" fill="#0155B6"/>
<path d="M48.3165 44.9508H48.3576C47.7653 45.3445 47.3544 45.5739 47.3031 45.6047L46.8819 44.8652L46.8306 44.7796V44.7556H46.9504H47.036C47.4514 44.8287 47.8783 44.8937 48.3165 44.9508Z" fill="#0155B6"/>
<path d="M53.0931 40.4482C52.9186 40.7371 52.7265 41.0149 52.5178 41.2802C51.5944 42.4172 50.5222 43.4248 49.3302 44.2761C48.9878 44.2247 48.4229 44.1562 47.7758 44.1083C48.6181 43.5467 49.4191 42.9254 50.1725 42.2491C50.5568 41.9071 50.9214 41.5436 51.2647 41.1603C51.453 40.9481 51.6311 40.7324 51.792 40.5132C51.9356 40.324 52.0693 40.1274 52.1926 39.9243L53.0931 40.4482Z" fill="#0155B6"/>
<path d="M54.0381 38.7532C53.951 38.6926 53.8581 38.641 53.7608 38.5991C53.4283 38.4609 53.0565 38.4499 52.7165 38.5683C52.4158 38.6651 52.1557 38.859 51.9769 39.1195C51.8655 39.2794 51.7866 39.4596 51.7449 39.65C51.7032 39.8403 51.6994 40.037 51.7338 40.2289C51.7512 40.3236 51.7776 40.4165 51.8126 40.5062C51.8714 40.653 51.9535 40.7894 52.0557 40.9102C52.14 41.0121 52.2379 41.102 52.3467 41.1773C52.399 41.2144 52.4539 41.2475 52.511 41.2766C52.6533 41.3574 52.8086 41.413 52.9698 41.4409C53.0439 41.446 53.1183 41.446 53.1924 41.4409C53.2808 41.4415 53.3691 41.4334 53.456 41.4169C53.7443 41.3657 54.0108 41.23 54.2219 41.0272C54.433 40.8243 54.5792 40.5634 54.6419 40.2774C54.7046 39.9914 54.681 39.6933 54.5741 39.4207C54.4672 39.1482 54.2819 38.9135 54.0415 38.7463L54.0381 38.7532ZM53.5656 40.2254C53.501 40.3189 53.4029 40.3839 53.2917 40.4069H53.2711C53.1515 40.4281 53.0284 40.401 52.9288 40.3316C52.8803 40.2977 52.839 40.2545 52.8072 40.2045C52.7755 40.1546 52.754 40.0989 52.7439 40.0405C52.7319 39.9816 52.7321 39.9208 52.7445 39.8619C52.7568 39.803 52.7811 39.7473 52.8158 39.6982C52.8849 39.5993 52.9903 39.5318 53.1091 39.5106C53.2279 39.4895 53.3502 39.5163 53.4492 39.5852C53.4698 39.5983 53.4883 39.6144 53.504 39.6331C53.5836 39.708 53.6337 39.809 53.645 39.9178C53.6563 40.0266 53.6282 40.1357 53.5656 40.2254Z" fill="#0155B6"/>
<path d="M54.4385 42.5367C54.3745 42.1682 54.1724 41.8381 53.8734 41.6135C53.5744 41.3889 53.201 41.2868 52.8293 41.3281C52.794 41.3247 52.7584 41.3247 52.7231 41.3281C52.5314 41.361 52.3481 41.4318 52.1841 41.5365C52.02 41.6411 51.8785 41.7775 51.7679 41.9375C51.5846 42.2006 51.4916 42.5159 51.5027 42.8363C51.5138 43.1567 51.6285 43.4648 51.8295 43.7145C51.9195 43.8221 52.0231 43.9177 52.1376 43.9987C52.3842 44.1723 52.6784 44.2655 52.9799 44.2658C53.0683 44.2646 53.1564 44.2566 53.2436 44.2418C53.4353 44.2076 53.6184 44.1358 53.7823 44.0306C53.9462 43.9254 54.0878 43.7889 54.1988 43.6289C54.3087 43.4716 54.3864 43.2941 54.4275 43.1067C54.4686 42.9193 54.4724 42.7256 54.4385 42.5367ZM53.3566 43.0571C53.2861 43.1552 53.1807 43.2226 53.0621 43.2454C52.9425 43.2666 52.8194 43.2396 52.7197 43.1701C52.6712 43.1362 52.6299 43.093 52.5982 43.0431C52.5664 42.9931 52.5449 42.9374 52.5348 42.8791C52.5229 42.8201 52.5231 42.7593 52.5354 42.7005C52.5478 42.6416 52.572 42.5859 52.6067 42.5367C52.6408 42.4873 52.6845 42.4453 52.735 42.4129C52.7856 42.3806 52.842 42.3586 52.9012 42.3484C52.9273 42.3449 52.9538 42.3449 52.9799 42.3484C53.0858 42.3497 53.1879 42.3876 53.2691 42.4556C53.3502 42.5236 53.4053 42.6176 53.425 42.7216C53.4267 42.7489 53.4267 42.7764 53.425 42.8038C53.4276 42.8931 53.4037 42.9812 53.3566 43.0571Z" fill="#0155B6"/>
<path d="M51.5352 39.5374C51.3298 39.3939 51.0911 39.3054 50.8418 39.2802C50.5925 39.255 50.3408 39.2941 50.1109 39.3936C50.0755 39.4055 50.0411 39.4204 50.0082 39.4381C49.7947 39.5488 49.6114 39.7098 49.474 39.9071C49.3348 40.111 49.2478 40.346 49.221 40.5915C49.1941 40.8369 49.2281 41.0852 49.32 41.3144C49.3316 41.345 49.3453 41.3747 49.3611 41.4034C49.4702 41.6304 49.6366 41.8251 49.8438 41.9683C50.0921 42.1407 50.3873 42.2328 50.6895 42.232C50.8049 42.232 50.9198 42.2182 51.0319 42.1909C51.3842 42.1058 51.6934 41.8952 51.9016 41.5985C52.006 41.4484 52.0815 41.28 52.1241 41.1021C52.1962 40.8123 52.1785 40.5075 52.0733 40.228C51.9681 39.9486 51.7805 39.7077 51.5352 39.5374ZM50.4327 41.1226C50.3835 41.0892 50.3414 41.0462 50.3091 40.9962C50.2767 40.9462 50.2547 40.8902 50.2444 40.8316C50.2335 40.7699 50.2356 40.7066 50.2505 40.6458C50.2654 40.5849 50.2928 40.5278 50.331 40.4781C50.3691 40.4284 50.4171 40.3872 50.4721 40.357C50.527 40.3269 50.5876 40.3085 50.65 40.303C50.7124 40.2975 50.7753 40.3051 50.8346 40.3252C50.8939 40.3453 50.9485 40.3775 50.9947 40.4198C51.0409 40.4621 51.0778 40.5136 51.1031 40.5709C51.1283 40.6282 51.1414 40.6902 51.1415 40.7528C51.1423 40.8445 51.1148 40.9342 51.0627 41.0096C51.0288 41.0585 50.9856 41.1002 50.9356 41.1323C50.8856 41.1644 50.8297 41.1864 50.7712 41.1969C50.7126 41.2074 50.6526 41.2062 50.5946 41.1935C50.5365 41.1807 50.4815 41.1567 50.4327 41.1226Z" fill="#0155B6"/>
<path d="M39.0105 21.1819L38.8325 21.2264L38.6681 21.2641C38.0918 21.4068 37.5041 21.4984 36.9117 21.538C35.3265 21.6531 33.7359 21.4036 32.2621 20.8087C30.7271 20.1848 29.3649 19.2007 28.2903 17.9395C28.1876 17.8231 28.0952 17.709 28.013 17.5971C27.7489 17.2717 27.5076 16.9285 27.2906 16.57L27.2495 16.5015L27.1639 16.3577L27.0372 16.142L26.6948 16.255L26.1949 16.4261L20.5181 18.3812L20.0216 18.5524L19.532 18.7202L19.0356 18.8914L14.2798 20.5314L15.5055 29.1151L15.5295 29.2794L15.6083 29.8409L16.2622 29.8101H16.4813L18.8096 29.5157L14.8036 38.5171L14.7591 38.6027L14.1189 39.8353L14.0983 39.8764L14.0538 39.9585L13.9853 40.0921L13.6429 40.7769L13.9237 40.9549C14.1736 40.9207 14.4236 40.8898 14.677 40.8659C14.992 40.8351 15.307 40.8111 15.6254 40.7974L14.992 40.4105L15.194 40.0202L15.3172 39.7839L15.5055 39.4415L15.5432 39.3696L16.2828 37.9453V37.9213L20.5455 28.3995L17.5393 28.7419H17.2586L16.495 28.7727L16.4437 28.4029L16.406 28.1495L15.4199 21.2401L19.1383 19.9596L20.1449 19.6172L26.4175 17.4567L26.5887 17.3985C26.7154 17.5937 26.8626 17.806 27.0338 18.032C27.205 18.2579 27.4138 18.501 27.633 18.7612C27.8007 18.953 27.9753 19.1447 28.1842 19.3399C29.2399 20.381 30.4907 21.2036 31.8649 21.7606C33.9986 22.6191 36.3399 22.8217 38.5894 22.3426L44.2046 30.3169L40.1507 37.4454L36.5727 34.2133L31.9573 46.9193L31.7416 47.5185L31.5944 47.9465L31.4061 47.8883C31.6343 48.1736 31.8626 48.4646 32.0909 48.7614L32.2997 49.0592L32.4983 48.508L32.7243 47.8883L37.0178 36.0176L40.4143 39.0752L45.4029 30.2587L39.0105 21.1819Z" fill="#0155B6"/>
<path d="M27.0088 16.2876L26.613 17.2355L38.5974 22.2388L38.9931 21.2909L27.0088 16.2876Z" fill="#0155B6"/>
<path d="M51.5282 22.7912H51.3947C49.7645 22.8426 48.1874 23.383 46.8683 24.3422C45.9618 25.0038 45.2057 25.8498 44.6496 26.8245C44.5537 26.9889 44.4681 27.1669 44.3928 27.3073C44.3175 27.4477 44.2148 27.6942 44.1463 27.8688L43.9374 28.3961L43.9032 28.4851H44.0196L44.4853 28.5433H44.5606C44.8389 28.5774 45.119 28.5945 45.3994 28.5947C46.5132 28.6005 47.6105 28.3262 48.5905 27.7969C50.184 26.8938 51.3575 25.3992 51.8569 23.6369C51.8774 23.5616 51.8946 23.4931 51.9082 23.4383L52.0658 22.7878L51.5282 22.7912ZM48.1043 26.9204C47.2755 27.3716 46.3465 27.6071 45.4029 27.6052C45.8912 26.6503 46.5944 25.8216 47.4572 25.1845C48.4054 24.4945 49.5102 24.051 50.6722 23.8937C50.2009 25.1744 49.2911 26.2468 48.1043 26.9204Z" fill="#0155B6"/>
<path d="M51.3947 7.94169C49.7645 7.99306 48.1874 8.53347 46.8683 9.49271C45.6919 10.3575 44.7724 11.5255 44.2079 12.8721C44.1985 12.8897 44.1905 12.908 44.184 12.9269C44.184 12.9577 44.1566 12.9851 44.1463 13.0159L43.9032 13.6322L44.5606 13.7144L44.8448 13.7418C44.9612 13.7418 45.0879 13.7418 45.2214 13.7623H45.3994C45.8023 13.7638 46.2045 13.7295 46.6012 13.6596C47.2996 13.542 47.9739 13.3106 48.5973 12.9748C49.4189 12.5037 50.1361 11.8704 50.7052 11.1135C51.2744 10.3565 51.6837 9.49174 51.9082 8.57169L52.0658 7.91772L51.3947 7.94169ZM48.1043 12.0675C47.3394 12.4816 46.488 12.7103 45.6186 12.7351C45.5432 12.7351 45.4713 12.7351 45.4029 12.7351C45.4268 12.6906 45.4508 12.6461 45.4782 12.6016C45.9711 11.7011 46.6589 10.922 47.4914 10.3213C48.4393 9.63081 49.5443 9.18719 50.7065 9.03049C50.2287 10.3205 49.3059 11.3975 48.1043 12.0675Z" fill="#0155B6"/>
<path d="M42.2769 14.1356C42.0686 13.836 41.8398 13.5511 41.5921 13.2831C40.7412 12.3577 39.6861 11.6437 38.5106 11.1979C37.0897 10.6631 35.5457 10.5443 34.0596 10.8555L33.4091 10.9856L33.7001 11.5814C34.316 12.8398 35.3063 13.8768 36.5351 14.5499C37.4912 15.0571 38.5582 15.3194 39.6405 15.3134C40.4562 15.3146 41.2663 15.1792 42.0373 14.9128L42.1023 14.8889L42.6707 14.6868L42.2769 14.1356ZM37.0247 13.6426C36.1923 13.1932 35.4859 12.5422 34.9703 11.7491C36.0425 11.6392 37.1255 11.7799 38.134 12.16C39.235 12.573 40.2153 13.2544 40.9861 14.1424C39.6482 14.4517 38.2438 14.2745 37.0247 13.6426Z" fill="#0155B6"/>
<path d="M41.003 29.2964C40.7613 28.6283 40.3863 28.0164 39.9007 27.4979C39.4151 26.9793 38.8291 26.5649 38.1783 26.2799L37.562 26.0129L37.4661 26.6977C37.3025 27.8283 37.4646 28.9822 37.9333 30.024C38.4021 31.0658 39.1581 31.9524 40.1128 32.5799L40.2806 32.686L40.8455 33.0284L41.0407 32.395C41.0407 32.3471 41.0715 32.2923 41.0852 32.2341C41.3486 31.2682 41.32 30.246 41.003 29.2964ZM38.9487 29.7552C38.6177 29.0814 38.4422 28.3419 38.4351 27.5913C39.1767 28.0747 39.7377 28.7897 40.0306 29.6251C40.2173 30.1811 40.2781 30.7717 40.2087 31.3541C39.6829 30.9138 39.2539 30.3694 38.9487 29.7552Z" fill="#0155B6"/>
<path d="M42.568 3.34343L42.2462 2.7511L41.76 3.21675C40.8804 4.06117 40.2745 5.15015 40.0207 6.34276C39.9967 6.45232 39.9796 6.55846 39.9625 6.6646C39.8529 7.40062 39.8808 8.15058 40.0446 8.87644C40.1044 9.14387 40.1822 9.40697 40.2775 9.66393L40.5103 10.2871L41.0513 9.90703C41.1368 9.8454 41.2361 9.7735 41.3423 9.6879L41.4039 9.63312C42.0989 9.05932 42.6254 8.30799 42.9275 7.45895C43.1493 6.78434 43.2318 6.07173 43.17 5.36431C43.1082 4.65688 42.9034 3.96936 42.568 3.34343ZM41.9586 7.10971C41.7614 7.65976 41.4445 8.15912 41.0307 8.57171C40.8839 7.87124 40.8909 7.14727 41.0511 6.44975C41.2113 5.75223 41.5209 5.09777 41.9586 4.53152C42.2427 5.36978 42.2427 6.2783 41.9586 7.11656V7.10971Z" fill="#0155B6"/>
<path d="M43.8656 21.8121L43.3623 20.9184C43.4 20.8979 47.2005 18.734 48.7823 16.125L49.6588 16.6557C47.94 19.4975 44.03 21.7196 43.8656 21.8121Z" fill="#0155B6"/>
<path d="M51.2168 15.9057C51.1839 15.714 51.113 15.5307 51.0084 15.3666C50.9037 15.2026 50.7674 15.0611 50.6073 14.9505C50.2853 14.7288 49.8888 14.6433 49.5041 14.7125C49.1193 14.7818 48.7775 15.0002 48.553 15.3202C48.4875 15.4139 48.4334 15.515 48.3921 15.6215C48.2536 15.9677 48.2536 16.3539 48.3921 16.7001C48.4942 16.9776 48.6795 17.2167 48.9228 17.3848C48.9751 17.4219 49.03 17.4551 49.0871 17.4841C49.2983 17.5951 49.5334 17.6527 49.7719 17.6519H49.9157L50.0355 17.6348C50.2273 17.6006 50.4104 17.5288 50.5743 17.4236C50.7382 17.3184 50.8798 17.1819 50.9908 17.0219C51.1014 16.8605 51.1784 16.6785 51.2172 16.4868C51.2561 16.295 51.2559 16.0974 51.2168 15.9057ZM50.1348 16.4262C50.1014 16.4751 50.0583 16.5166 50.0083 16.5484C49.9583 16.5802 49.9023 16.6015 49.8438 16.611C49.7821 16.6219 49.7188 16.6198 49.658 16.6049C49.5971 16.59 49.54 16.5626 49.4903 16.5245C49.4406 16.4864 49.3994 16.4383 49.3692 16.3834C49.3391 16.3285 49.3207 16.2679 49.3152 16.2055C49.3097 16.1431 49.3173 16.0802 49.3374 16.0208C49.3575 15.9615 49.3897 15.907 49.432 15.8608C49.4743 15.8146 49.5258 15.7777 49.5831 15.7524C49.6405 15.7271 49.7024 15.714 49.7651 15.714C49.8584 15.7127 49.9496 15.7416 50.0253 15.7962C50.0742 15.8297 50.1158 15.8727 50.1475 15.9227C50.1793 15.9728 50.2006 16.0287 50.2102 16.0872C50.2308 16.2057 50.2037 16.3276 50.1348 16.4262Z" fill="#0155B6"/>
<path d="M50.5078 17.5356C50.4676 17.5072 50.4253 17.482 50.3812 17.4603C50.1873 17.3517 49.9714 17.2885 49.7496 17.2754C49.5277 17.2624 49.3059 17.2998 49.1006 17.3849C48.8358 17.4897 48.6082 17.6708 48.4467 17.9054C48.2241 18.2271 48.1381 18.6239 48.2074 19.0089C48.2767 19.3939 48.4957 19.7358 48.8164 19.9597C49.0633 20.1322 49.3575 20.2243 49.6587 20.2233C49.7472 20.2239 49.8355 20.2159 49.9224 20.1994C50.1743 20.1543 50.4103 20.0446 50.6071 19.8809C50.7072 19.7957 50.7958 19.6979 50.8708 19.5899C51.0527 19.331 51.1442 19.0193 51.131 18.7031C51.1255 18.4734 51.0662 18.2481 50.958 18.0454C50.8498 17.8427 50.6956 17.6681 50.5078 17.5356ZM50.0319 19.0113C49.9984 19.0602 49.9554 19.1018 49.9054 19.1335C49.8553 19.1653 49.7994 19.1866 49.7409 19.1962C49.6819 19.2073 49.6213 19.2068 49.5625 19.1944C49.5038 19.1821 49.448 19.1582 49.3985 19.1243C49.3007 19.0583 49.2311 18.9582 49.2033 18.8435C49.1927 18.7843 49.1938 18.7235 49.2067 18.6648C49.2197 18.606 49.2441 18.5504 49.2787 18.5011C49.3207 18.4414 49.3767 18.3927 49.4417 18.3593C49.5067 18.3259 49.5788 18.3088 49.6519 18.3094H49.6895C49.7683 18.3129 49.8444 18.3391 49.9087 18.3847C49.9938 18.444 50.056 18.5309 50.0847 18.6307C50.1133 18.7304 50.1068 18.837 50.0662 18.9325C50.0587 18.9603 50.0472 18.9869 50.0319 19.0113Z" fill="#0155B6"/>
<path d="M48.3955 16.3576C48.3848 16.2936 48.3688 16.2306 48.3476 16.1693C48.2457 15.8646 48.0474 15.6014 47.7826 15.4194C47.7318 15.383 47.678 15.3509 47.6217 15.3236C47.3329 15.1676 46.9993 15.1156 46.6767 15.1763C46.3099 15.238 45.9798 15.4357 45.7522 15.7299C45.5246 16.0241 45.4162 16.3932 45.4486 16.7638C45.481 17.1343 45.6518 17.479 45.927 17.7293C46.2022 17.9795 46.5616 18.1169 46.9335 18.114C47.022 18.1147 47.1103 18.1067 47.1971 18.0901C47.2264 18.0865 47.2551 18.0796 47.2827 18.0695C47.6372 17.9872 47.9476 17.7745 48.1524 17.4738C48.2583 17.321 48.336 17.1506 48.3818 16.9704C48.4276 16.7692 48.4322 16.5607 48.3955 16.3576ZM47.026 17.0663C46.9064 17.0875 46.7832 17.0604 46.6836 16.991C46.635 16.9568 46.5936 16.9134 46.5618 16.8633C46.53 16.8131 46.5084 16.7572 46.4982 16.6987C46.488 16.6402 46.4895 16.5803 46.5025 16.5223C46.5155 16.4644 46.5398 16.4095 46.574 16.361C46.6074 16.3117 46.6504 16.2697 46.7004 16.2373C46.7504 16.205 46.8064 16.183 46.865 16.1727H46.9438C47.0369 16.1726 47.1278 16.2013 47.204 16.2549C47.3012 16.3245 47.3674 16.4292 47.3885 16.5469C47.4096 16.6646 47.3839 16.7858 47.317 16.8849C47.2814 16.9337 47.2365 16.9749 47.1847 17.0061C47.133 17.0373 47.0755 17.0577 47.0157 17.0663H47.026Z" fill="#0155B6"/>
<path d="M34.6383 47.7343C34.5367 47.7342 34.4375 47.704 34.3532 47.6476C34.2688 47.5911 34.203 47.5109 34.1642 47.4172C34.1254 47.3234 34.1152 47.2202 34.135 47.1206C34.1547 47.021 34.2036 46.9296 34.2753 46.8577C37.148 43.9954 43.8109 36.0896 43.6842 24.5134C43.602 16.9809 40.0685 8.3116 37.5828 4.57271C37.5074 4.4592 37.4802 4.3204 37.5072 4.18684C37.5342 4.05328 37.6131 3.93591 37.7266 3.86054C37.8401 3.78517 37.9789 3.75798 38.1125 3.78495C38.246 3.81191 38.3634 3.89083 38.4388 4.00434C40.993 7.84937 44.6292 16.7481 44.7113 24.5032C44.8414 36.4868 37.9628 44.6322 35.0012 47.5836C34.9539 47.6318 34.8974 47.6699 34.835 47.6958C34.7727 47.7217 34.7058 47.7348 34.6383 47.7343Z" fill="#0155B6"/>
<path d="M41.2464 38.1302L40.2535 37.8666C40.6757 36.0557 40.6096 34.1652 40.0618 32.3883L41.0342 32.046C41.6539 34.0175 41.7272 36.1203 41.2464 38.1302Z" fill="#0155B6"/>
<path d="M42.8897 18.0078C42.6671 14.423 44.2045 12.9028 44.2592 12.8378L44.9748 13.5739C44.9748 13.5739 43.7251 14.8716 43.9169 17.9462L42.8897 18.0078Z" fill="#0155B6"/>
<path d="M46.3753 45.7413C46.7862 45.7859 47.1183 45.8304 47.2861 45.8543C46.9745 45.8201 46.6664 45.7893 46.3582 45.7687C45.9542 45.7379 45.557 45.7208 45.1633 45.714C44.5504 45.714 43.9478 45.714 43.3623 45.7448C43.9674 45.6157 44.5891 45.5834 45.2044 45.6489C45.6118 45.6694 46.0227 45.7071 46.3753 45.7413Z" fill="#0155B6"/>
</g>
<path d="M82.821 49.1096V17.5893H70.6291V14.4174H98.6802V17.5893H86.4884V49.1096H82.821ZM129.914 14.4174H133.532V49.1096H129.914V14.4174ZM108.207 49.1096H104.539V14.4174H108.207V49.1096ZM130.261 33.1017H107.81V29.8802H130.261V33.1017ZM144.855 49.1096V14.4174H157.84C160.781 14.4174 163.308 14.8965 165.423 15.8547C167.537 16.7798 169.156 18.1345 170.28 19.9186C171.436 21.6698 172.014 23.8009 172.014 26.3119C172.014 28.7569 171.436 30.8714 170.28 32.6556C169.156 34.4067 167.537 35.7614 165.423 36.7196C163.308 37.6447 160.781 38.1072 157.84 38.1072H146.887L148.523 36.4222V49.1096H144.855ZM168.545 49.1096L159.624 36.5213H163.589L172.559 49.1096H168.545ZM148.523 36.7196L146.887 34.9849H157.741C161.21 34.9849 163.837 34.225 165.621 32.7052C167.438 31.1853 168.347 29.0542 168.347 26.3119C168.347 23.5365 167.438 21.3889 165.621 19.8691C163.837 18.3492 161.21 17.5893 157.741 17.5893H146.887L148.523 15.8547V36.7196ZM180.67 49.1096V14.4174H184.338V49.1096H180.67ZM198.896 31.2184H217.234V34.3902H198.896V31.2184ZM199.293 49.1096H195.625V14.4174H219.414V17.5893H199.293V49.1096ZM233.97 49.1096V17.5893H221.778V14.4174H249.829V17.5893H237.637V49.1096H233.97ZM270.37 49.407C267.76 49.407 265.331 48.9775 263.084 48.1184C260.871 47.2263 258.938 45.9873 257.286 44.4014C255.667 42.7824 254.395 40.9157 253.47 38.8011C252.578 36.6535 252.132 34.3076 252.132 31.7635C252.132 29.2194 252.578 26.8901 253.47 24.7755C254.395 22.6279 255.667 20.7612 257.286 19.1752C258.938 17.5563 260.871 16.3173 263.084 15.4582C265.298 14.5661 267.726 14.1201 270.37 14.1201C272.98 14.1201 275.392 14.5661 277.605 15.4582C279.819 16.3173 281.736 17.5397 283.354 19.1257C285.006 20.7116 286.279 22.5784 287.171 24.726C288.096 26.8736 288.558 29.2194 288.558 31.7635C288.558 34.3076 288.096 36.6535 287.171 38.8011C286.279 40.9487 285.006 42.8155 283.354 44.4014C281.736 45.9873 279.819 47.2263 277.605 48.1184C275.392 48.9775 272.98 49.407 270.37 49.407ZM270.37 46.136C272.451 46.136 274.368 45.7891 276.119 45.0952C277.903 44.3684 279.439 43.3606 280.728 42.0721C282.049 40.7505 283.074 39.2306 283.801 37.5125C284.527 35.7614 284.891 33.8451 284.891 31.7635C284.891 29.682 284.527 27.7822 283.801 26.0641C283.074 24.313 282.049 22.7931 280.728 21.5046C279.439 20.183 277.903 19.1752 276.119 18.4814C274.368 17.7545 272.451 17.3911 270.37 17.3911C268.288 17.3911 266.355 17.7545 264.571 18.4814C262.787 19.1752 261.234 20.183 259.912 21.5046C258.624 22.7931 257.6 24.313 256.84 26.0641C256.113 27.7822 255.749 29.682 255.749 31.7635C255.749 33.812 256.113 35.7118 256.84 37.463C257.6 39.2141 258.624 40.7505 259.912 42.0721C261.234 43.3606 262.787 44.3684 264.571 45.0952C266.355 45.7891 268.288 46.136 270.37 46.136ZM296.779 49.1096V14.4174H309.764C312.704 14.4174 315.232 14.8965 317.346 15.8547C319.461 16.7798 321.08 18.1345 322.203 19.9186C323.36 21.6698 323.938 23.8009 323.938 26.3119C323.938 28.7569 323.36 30.8714 322.203 32.6556C321.08 34.4067 319.461 35.7614 317.346 36.7196C315.232 37.6777 312.704 38.1568 309.764 38.1568H298.811L300.446 36.4222V49.1096H296.779ZM300.446 36.7196L298.811 34.9354H309.664C313.134 34.9354 315.76 34.192 317.544 32.7052C319.362 31.1853 320.27 29.0542 320.27 26.3119C320.27 23.5365 319.362 21.3889 317.544 19.8691C315.76 18.3492 313.134 17.5893 309.664 17.5893H298.811L300.446 15.8547V36.7196ZM331.868 49.1096V14.4174H335.535V49.1096H331.868ZM341.272 49.1096L357.131 14.4174H360.749L376.609 49.1096H372.743L358.172 16.5485H359.659L345.088 49.1096H341.272ZM347.517 39.8419L348.607 36.8682H368.778L369.868 39.8419H347.517Z" fill="#0155B6"/>
<defs>
<clipPath id="clip0_71_407">
<rect width="57.5042" height="56.7167" fill="white" transform="translate(0.926636 2.75122)"/>
</clipPath>
</defs>
</svg>
