<svg width="30" height="30" viewBox="0 0 30 30" fill="none" xmlns="http://www.w3.org/2000/svg">
<path d="M27.4751 14.2624C27.0501 7.01244 20.4626 1.42495 12.8751 2.67495C7.65011 3.53745 3.46262 7.77493 2.65012 12.9999C2.17512 16.0249 2.80015 18.8874 4.16265 21.2499L3.05013 25.3874C2.80013 26.3249 3.66261 27.1749 4.58761 26.9124L8.66262 25.7874C10.5126 26.8749 12.6751 27.4999 14.9876 27.4999C22.0376 27.4999 27.8876 21.2874 27.4751 14.2624ZM21.1001 19.6499C20.9876 19.8749 20.8501 20.0874 20.6751 20.2874C20.3626 20.6249 20.0251 20.8749 19.6501 21.0249C19.2751 21.1874 18.8626 21.2624 18.4251 21.2624C17.7876 21.2624 17.1001 21.1125 16.3876 20.8C15.6626 20.4875 14.9501 20.0749 14.2376 19.5624C13.5126 19.0374 12.8376 18.4499 12.1876 17.8124C11.5376 17.1624 10.9626 16.4749 10.4376 15.7624C9.9251 15.0499 9.51262 14.3374 9.21262 13.6249C8.91262 12.9124 8.76264 12.2249 8.76264 11.5749C8.76264 11.1499 8.83763 10.7374 8.98763 10.3624C9.13763 9.97494 9.37515 9.62495 9.71265 9.31245C10.1127 8.91245 10.5501 8.72495 11.0126 8.72495C11.1876 8.72495 11.3626 8.76244 11.5251 8.83744C11.6876 8.91244 11.8376 9.02494 11.9501 9.18744L13.4001 11.2374C13.5126 11.3999 13.6001 11.5374 13.6501 11.6749C13.7126 11.8124 13.7376 11.9374 13.7376 12.0624C13.7376 12.2124 13.6876 12.3624 13.6001 12.5124C13.5126 12.6624 13.4001 12.8124 13.2501 12.9624L12.7751 13.4624C12.7001 13.5374 12.6751 13.6124 12.6751 13.7124C12.6751 13.7624 12.6876 13.8124 12.7001 13.8624C12.7251 13.9124 12.7376 13.9499 12.7501 13.9874C12.8626 14.1999 13.0626 14.4624 13.3376 14.7874C13.6251 15.1124 13.9252 15.4499 14.2502 15.7749C14.5877 16.1124 14.9126 16.4124 15.2501 16.6999C15.5751 16.9749 15.8501 17.1624 16.0626 17.2749C16.1001 17.2874 16.1376 17.3124 16.1751 17.3249C16.2251 17.3499 16.2751 17.3499 16.3376 17.3499C16.4501 17.3499 16.5252 17.3124 16.6002 17.2374L17.0751 16.7624C17.2376 16.5999 17.3877 16.4874 17.5252 16.4124C17.6752 16.3249 17.8126 16.2749 17.9751 16.2749C18.1001 16.2749 18.2251 16.2999 18.3626 16.3624C18.5001 16.4249 18.6501 16.4999 18.8001 16.6124L20.8751 18.0874C21.0376 18.1999 21.1501 18.3374 21.2251 18.4874C21.2876 18.6499 21.3251 18.7999 21.3251 18.9749C21.2501 19.1874 21.2001 19.4249 21.1001 19.6499Z" fill="#0155B6"/>
</svg>
